<svg width="169" height="31" viewBox="0 0 169 31" fill="none" xmlns="http://www.w3.org/2000/svg">
<g clip-path="url(#clip0_426_25)">
<path d="M6.15592 23.7206C6.21546 23.7093 6.2654 23.7225 6.30382 23.7529C6.98184 23.3413 7.67522 22.9601 8.38206 22.6092C8.50114 22.2659 8.88145 22.0458 9.21758 21.9017C8.9045 21.8391 8.51075 21.805 8.32635 21.5129C8.12276 21.1316 8.53764 20.8338 8.89105 20.8054C9.30785 20.739 9.73234 20.868 10.9731 21.2397C11.0672 21.272 11.1921 21.2985 11.2977 21.3422C12.2274 20.9932 13.1724 20.6821 14.1308 20.4052C12.4886 20.3369 12.9899 19.2709 13.8811 19.1495C14.7013 19.0433 16.0324 19.5535 16.3992 19.6655C16.4799 19.6901 16.5721 19.7034 16.6297 19.766C17.8647 19.4872 19.1113 19.2539 20.3636 19.0585C19.9795 19.0282 19.5992 18.9713 19.2265 18.8726C18.4582 18.7171 17.8705 17.9906 18.7598 17.5051C19.8873 17.0138 20.5941 17.708 22.0116 18.6204C22.0539 18.6469 22.0788 18.6905 22.0884 18.738C22.1307 18.7455 22.1653 18.7683 22.1902 18.7968C25.2423 18.4003 28.715 18.1139 31.8631 18.0608C32.1243 18.057 32.1166 18.4231 31.8861 18.425C28.715 18.4914 25.5285 18.7247 22.3823 19.1363C22.4246 19.1685 22.4553 19.2197 22.4515 19.2918C22.4188 19.9348 22.292 20.7409 21.735 21.1506C21.2414 21.4237 20.9014 20.923 20.9725 20.4754C20.4846 21.0709 19.8911 21.712 19.1151 21.8713C18.222 21.987 17.7226 20.5133 19.9987 19.4891C18.9096 19.6711 17.8206 19.8779 16.7411 20.1207C16.2552 20.83 15.7423 21.4977 15.0547 22.006C14.6706 22.3209 13.7524 22.6585 13.6622 21.9112C13.6622 21.4294 14.3056 20.9325 14.6744 20.6347C13.5969 20.9287 12.5328 21.2663 11.4879 21.6551C11.4783 21.6949 11.4648 21.7405 11.3995 21.8201C11.3208 22.539 11.2497 23.3242 10.7619 23.9046C10.5775 24.1569 10.1126 24.3541 9.92057 24.0089C9.80532 23.7756 9.91289 23.5196 10.0032 23.2958C10.105 23.0473 10.2164 22.8007 10.347 22.5636C9.93785 22.9164 9.23679 23.421 8.70282 23.2996C8.52803 23.254 8.42239 23.1459 8.37245 23.0132C7.21041 23.6011 6.51318 24.0507 5.70455 24.5343C5.36842 24.9213 4.84406 25.3082 4.49064 25.4979C3.82222 25.826 3.20375 25.3518 3.79725 24.7316C4.42534 24.1171 5.32616 23.9198 6.154 23.7168L6.15592 23.7206Z" fill="#596F52"/>
<path d="M84.5759 22.0609C80.7325 22.537 74.4843 22.6432 69.0083 22.1007C68.991 22.1083 68.2803 22.334 68.192 22.3606C64.6329 23.4682 60.3131 23.5422 56.7309 22.9125C54.5682 22.573 52.4631 21.93 50.2811 21.7081C48.4468 21.507 48.8156 21.5791 48.4218 21.5336C48.1817 21.49 48.2259 21.141 48.5083 21.1675C48.6792 21.1713 48.8463 21.1846 49.0153 21.2017C49.3784 21.2396 49.7471 21.2548 50.1121 21.2775C57.8104 21.5545 61.0507 22.3719 63.5304 22.3112C64.7769 22.2581 66.0139 22.078 67.2489 21.8997C63.636 21.435 59.8406 20.5037 56.3237 19.5705C56.2623 19.7052 56.0087 19.7203 55.8704 19.7621C55.3711 19.8778 55.1675 19.9403 55.0157 19.8436C54.9043 19.7715 54.8678 19.6103 54.937 19.4965C55.0196 19.3922 55.1348 19.3258 55.2597 19.286L54.0169 18.9484C52.2095 19.1172 50.4079 19.3467 48.6139 19.6274C48.5947 19.6445 48.5736 19.6577 48.5486 19.6672C48.5121 19.7089 48.4583 19.7374 48.4026 19.7393C48.2432 19.8815 47.6343 20.5416 47.3116 20.4088C47.1676 20.35 47.1349 20.1509 47.2175 20.0295C47.2771 19.9479 47.3539 19.8797 47.4365 19.819C46.4896 19.9783 45.5446 20.1528 44.6034 20.3387C44.6188 20.3956 44.6111 20.4582 44.5688 20.5018C44.4401 20.6383 44.3345 20.7559 44.1789 20.8849C43.7717 21.2908 43.3088 20.9816 43.6642 20.5302C43.0226 20.663 42.383 20.8034 41.7434 20.9494C41.5052 21.6607 41.2671 22.3985 40.8157 23.0092C40.4392 23.5555 39.4846 24.3142 38.8239 23.8248C38.3399 23.3089 38.8661 22.5806 39.3559 22.0704C38.8834 22.2942 38.384 22.4459 37.8751 22.3644C37.6042 22.3188 37.4275 22.2145 37.3257 22.078C37.1356 22.133 36.9473 22.188 36.7591 22.243C36.7514 22.2828 36.5786 22.6508 36.4422 22.8063C36.2175 23.1306 35.7546 22.9485 36.0081 22.4706C35.8352 22.5237 35.6604 22.5787 35.4876 22.6337C35.4799 22.6773 35.43 22.8044 35.307 23.1686C34.4811 25.8012 33.2211 25.0994 33.6974 23.9386C33.0079 24.3616 32.4278 24.1378 32.2799 23.804C32.0648 23.8931 31.8497 23.9842 31.6365 24.079C31.6307 24.0999 31.6192 24.1226 31.6038 24.1435C31.6787 24.1928 31.7152 24.2971 31.6711 24.3768C31.5597 24.5646 31.4636 24.7732 31.2946 24.9173C31.0968 25.0786 30.8375 24.9249 30.897 24.6784C30.9297 24.5664 30.9777 24.4583 31.0334 24.354C30.6473 24.5323 30.2651 24.7201 29.8886 24.9154C30.1095 25.1677 30.2708 25.4807 30.4283 25.7728C30.6761 26.2659 30.7722 26.8216 30.7914 27.3679C30.7856 28.6823 29.9021 28.468 29.7042 27.9483C29.5198 27.5538 29.5429 27.0872 29.5333 26.6149C29.3086 27.3964 28.9763 28.1664 28.3924 28.7506C28.2157 28.9213 28.0121 29.0882 27.7681 29.1508C27.4051 29.2551 27.0114 29.0181 26.9249 28.6577C26.7982 28.0925 27.0671 27.5026 27.3782 27.0132C26.8116 27.4627 26.076 27.8857 25.373 27.7131C25.1771 27.8705 24.985 28.0318 24.7987 28.1987C24.8102 28.2859 24.7564 28.3751 24.6738 28.4016C24.67 28.4737 24.6565 28.5477 24.6546 28.6103C24.5663 29.4903 24.718 30.4349 24.1475 30.8806C23.8959 31.0798 23.5425 31.0229 23.4638 30.6891C23.4138 30.3742 23.4676 30.0612 23.5579 29.7559C22.5168 30.8484 21.5449 30.5487 21.8196 29.9228C22.3267 29.0901 23.798 28.3789 24.0649 28.4282C24.0707 28.4168 24.0784 28.4054 24.0861 28.3959C23.5079 28.4794 22.5187 28.8436 21.7985 28.6956C21.4547 28.578 21.5584 28.1209 21.7716 27.9236C22.4189 27.2427 23.9824 27.4305 24.8044 27.7036C24.8697 27.6467 24.9389 27.5917 25.008 27.5348C24.549 27.146 24.6392 26.1369 26.0049 25.4693C25.4863 25.4636 25.0176 25.3745 24.7314 25.1241C24.1437 24.4659 25.2232 23.8438 25.7898 23.6921C26.7367 23.4588 27.6433 23.7186 28.523 24.0524C27.1842 22.8347 27.4819 21.3022 28.2656 21.4425C28.7515 21.5564 29.2144 22.1045 29.4661 22.5123C29.5871 22.7115 29.6697 22.9258 29.7426 23.1458C30.1614 21.6208 30.9969 21.9679 31.0391 22.6583C31.043 23.2482 30.7299 23.7755 30.3919 24.2573C31.0161 23.9538 31.6519 23.6712 32.2934 23.4057C32.4394 23.1003 32.956 22.8309 33.2749 22.7115C32.8946 22.6716 32.5316 22.5654 32.4144 22.1785C32.328 21.361 33.6533 21.3951 34.339 21.6531C34.2084 21.5032 34.0585 21.3306 34.0835 21.1239C34.1373 20.4923 35.3186 20.7028 35.7622 22.1652C36.4172 21.9641 36.8955 21.8257 37.2182 21.7327C37.2258 21.3591 37.5581 20.938 38.0268 20.8071C38.2842 20.7123 38.555 20.6706 38.8277 20.6535C37.9288 20.2742 38.1824 19.3656 38.9334 19.4036C39.6095 19.4036 40.2548 19.6729 40.8484 19.9745C41.0443 20.0845 41.6666 20.3747 41.7742 20.5188C41.7991 20.5245 41.8222 20.5359 41.8433 20.5549C42.6558 20.3728 43.4702 20.2002 44.2865 20.039C44.3364 20.0105 44.3825 19.9935 44.4421 20.0086C45.8346 19.7355 46.8603 19.5515 47.6516 19.4169C47.4038 19.1911 47.5709 18.9161 47.813 18.937C47.9436 18.9484 48.053 19.0128 48.1664 19.0735C48.2643 19.1418 48.4353 19.1779 48.5063 19.2746C49.7241 19.0792 50.9457 18.9066 52.1711 18.7625C51.979 18.7094 51.7582 18.6449 51.7428 18.44C51.7409 18.4002 51.7466 18.3661 51.7581 18.3338L50.1774 17.9052C50.1236 17.9184 50.066 17.909 50.0199 17.8634C49.701 17.7762 49.3803 17.6889 49.0595 17.6036C43.9792 17.9734 39.6268 18.5387 36.2482 17.651C36.1291 17.6074 35.8602 17.6263 35.8544 17.3931C35.8583 17.2944 35.9466 17.2148 36.0465 17.2186C39.7228 17.3703 42.0469 16.8146 45.1412 16.5452C43.6546 16.1488 43.449 16.1014 43.0361 15.9971C43.0111 16.164 42.7326 16.2038 42.6058 16.3024C42.5098 16.3536 42.4138 16.4181 42.3062 16.4447C41.9816 16.53 41.7588 16.0559 42.2428 15.7979C41.922 15.7164 41.6013 15.6348 41.2805 15.5513C41.2632 15.576 41.2402 15.5988 41.2114 15.6177C41.2748 15.7239 41.2037 15.8529 41.0904 15.8871C40.6044 16.1128 40.1146 16.3518 39.598 16.5092C38.9987 16.697 38.1939 16.9701 37.7636 16.3423C37.3084 15.7562 38.3168 15.4394 38.7547 15.3465C39.2369 15.2422 39.7266 15.246 40.2164 15.2706C38.9564 14.9311 37.8635 14.603 35.8948 14.0131C35.8775 14.0567 35.8429 14.0966 35.7968 14.1136C35.7968 14.1497 35.7891 14.1857 35.768 14.216C35.0881 15.172 34.3928 16.2133 33.2403 16.5888C32.8504 16.7273 32.4182 16.6097 32.3318 16.1602C32.2377 15.5267 32.8754 15.1018 33.3248 14.768C33.538 14.6181 33.7628 14.4816 33.9971 14.3621C32.8811 14.5081 31.066 14.4835 30.0845 13.9391C29.7561 13.7798 29.5294 13.3663 29.8003 13.0571C30.0288 12.8163 30.7069 12.6304 31.0334 12.5678C30.4591 12.399 29.8809 12.234 29.3047 12.069C29.2029 12.2719 28.9647 12.8409 28.6248 13.3113C27.3436 14.9994 26.172 13.9372 27.3801 12.8106C26.7194 13.0875 26.001 13.2411 25.2827 13.1823C23.8325 13.042 23.8268 12.1448 24.6911 11.7408C22.6763 11.7238 22.4592 10.838 22.8664 10.3998C22.7358 10.3714 22.6052 10.341 22.4727 10.3107C22.2671 10.4169 22.077 10.5478 21.8676 10.6483C21.664 10.7868 21.2856 10.7071 21.3605 10.4074C21.4105 10.2803 21.5065 10.1912 21.6218 10.1267C21.3932 10.0774 21.1665 10.03 20.9399 9.98446C20.8208 10.396 20.0468 11.5265 18.6504 12.5621C17.5364 13.463 16.4646 12.4085 18.0281 11.022C17.1657 11.5113 16.3916 12.0291 15.5407 12.1278C14.4267 12.3421 13.3203 11.1415 16.7316 10.4359C16.2303 10.2974 15.7942 9.94463 15.946 9.45907C15.8019 9.48752 15.6579 9.51597 15.5138 9.54063C12.7019 10.0907 12.3773 9.0361 13.0591 8.6302C12.1448 8.52209 11.7415 8.49364 11.3497 8.4614C11.3228 8.56382 11.2056 8.64158 11.0961 8.59037C9.18883 10.3638 8.82197 10.8057 8.15163 10.8532C6.85513 10.9821 6.74949 10.0565 7.66184 9.35475C8.28992 8.89764 9.06206 8.52019 9.85532 8.32862C9.29255 8.27931 8.73361 8.23379 8.17084 8.19396C8.20925 8.27362 8.18236 8.36656 8.11129 8.41967C7.973 8.52588 7.8251 8.65296 7.6484 8.68142C7.42751 8.72504 7.17973 8.47467 7.47745 8.15033C7.24888 8.13706 7.02223 8.12757 6.79559 8.11999C6.75909 8.15982 6.63809 8.23569 6.10796 8.65486C5.6297 9.00386 4.58098 9.98067 3.9721 9.65823C3.21725 9.0968 4.3889 8.44812 5.26668 8.09723C5.02851 8.10102 4.76729 8.10671 4.51375 8.11999C4.31591 8.21861 2.83502 8.63589 1.76901 8.68142C1.30996 8.70038 0.835536 8.60934 0.424498 8.38363C-0.0518449 8.14085 -0.151723 7.52062 0.35151 7.24749C0.754865 7.05403 1.21968 7.10903 1.65569 7.11093C1.96685 7.11472 2.27609 7.14317 2.58149 7.19439C1.08139 6.18343 2.05136 5.25404 2.89265 5.63528C3.73393 6.02601 4.17186 6.92315 4.5925 7.69702C4.6021 7.71409 4.60787 7.73305 4.60979 7.75012C5.04387 7.73495 5.24747 7.72736 5.60473 7.72547C5.23403 7.48458 5.35695 7.16594 5.60089 7.12231C6.02345 7.07869 6.32885 7.46941 6.62272 7.71029C6.63232 7.72167 6.64001 7.73116 6.64769 7.74254C7.37565 7.76909 9.23877 7.90376 9.66325 7.936C8.64718 7.64391 7.41406 7.23422 6.97037 6.45656C6.60351 5.81357 7.14132 5.05868 9.03901 6.26689C9.22724 6.39397 9.40587 6.53433 9.57874 6.68037C9.30791 6.21188 8.95834 5.37354 9.43084 5.08713C10.1876 4.6414 10.9982 5.58786 11.2229 6.41863C11.3208 6.91746 11.3247 7.43717 11.3305 7.94928C11.4169 7.96256 11.4764 8.02894 11.486 8.09533C11.6416 8.1105 11.7953 8.12757 11.9508 8.14275C11.6762 7.85634 11.7972 7.60028 12.0469 7.5908C12.3849 7.62873 12.5732 7.97773 12.7883 8.20155C12.7979 8.21482 12.8075 8.2262 12.8152 8.23948C13.1455 8.27741 13.4759 8.31914 13.8063 8.36087C14.4344 8.24706 15.2372 8.3419 15.8941 8.66055C16.1323 8.69848 16.3724 8.73642 16.6125 8.77435C16.7258 8.72124 16.9083 8.65865 17.0158 8.62641C14.3306 8.52209 14.5016 6.90229 16.0305 7.14507C16.334 7.1849 16.6298 7.26267 16.9198 7.36319C15.9575 6.28017 17.2021 5.26163 19.0096 7.42389C18.9519 7.10524 18.9865 6.78659 19.2247 6.53622C19.5454 6.26879 20.0179 6.4357 20.2753 6.71452C21.0878 7.59839 21.3701 9.24284 21.3106 9.6734C21.5046 9.71513 21.6967 9.75496 21.8907 9.79858C21.7389 9.58994 21.6698 9.36234 21.9272 9.25043C22.2518 9.2106 22.4477 9.58805 22.6282 9.80048C22.6647 9.84979 22.6705 9.91428 22.6494 9.96929C22.8645 10.0186 23.0815 10.0698 23.2966 10.121C23.6693 9.98256 24.1917 9.99584 24.7372 10.0945C24.426 9.85738 24.2032 9.58994 24.1917 9.28647C24.1687 8.99817 24.3895 8.73832 24.6796 8.70228C25.3691 8.65296 26.0222 9.00386 26.6003 9.34147C27.2457 9.72082 27.7662 10.2519 28.1984 10.8456C28.1119 10.6161 28.037 10.3809 27.9621 10.1476C27.7873 9.64116 27.7316 8.91282 27.8142 8.69279C28.1753 7.84306 29.6293 8.08015 29.6293 10.4871C29.6159 10.9025 29.5122 11.3046 29.3662 11.6934C29.637 11.7693 29.9097 11.847 30.1825 11.9267C30.0423 11.5701 30.292 11.3558 30.5244 11.462C30.7261 11.5644 30.7241 11.8224 30.8279 11.995C30.8509 12.0367 30.8528 12.0784 30.8451 12.1164C31.26 12.2378 31.673 12.3592 32.0898 12.4824C33.0425 12.5204 34.0374 12.8352 34.8172 13.2658C34.0451 12.6531 33.2614 12.0765 32.6161 11.1889C32.2473 10.7128 32.2031 10.1229 32.6353 9.66961C33.0636 9.23715 33.7551 9.48373 34.1507 9.83841C35.1841 10.7356 35.9947 13.0078 35.9101 13.6243C36.3116 13.7457 36.713 13.8633 37.1164 13.9846C36.8475 13.5806 37.2393 13.3815 37.4755 13.4915C37.731 13.6129 37.8539 13.8822 37.9826 14.1155C38.0037 14.1553 38.0095 14.199 37.9999 14.2407C37.9999 14.2407 37.9999 14.2445 38.0018 14.2483C38.5531 14.4095 39.0025 14.5423 39.9053 14.7908C39.0774 14.2085 37.8078 13.0932 38.5435 12.3914C38.7413 12.2036 39.0486 12.2131 39.2887 12.306C40.1895 12.693 40.9021 14.271 41.292 15.1644C44.9991 16.1412 42.8536 15.5456 46.2379 16.4542C54.4472 15.8112 57.553 16.7937 63.2384 17.9052C61.0776 16.9208 58.9014 15.7163 57.1554 14.639C54.1591 13.757 50.9169 12.5697 48.1087 11.388C48.0761 11.4108 48.0358 11.4222 47.9935 11.4184C47.9724 11.462 47.9359 11.4961 47.8879 11.5094C46.2744 12.0121 45.4063 12.4938 44.4536 11.7219C43.7295 11.0182 44.492 10.4738 45.2737 10.5269C45.6598 10.5307 46.042 10.5762 46.4185 10.6502C45.2641 10.1305 44.1271 9.57477 43.013 8.9792C42.94 9.02472 42.8478 9.01144 42.7653 9.01524C42.3811 9.02662 40.9598 9.16508 40.1991 8.84643C39.3713 8.49174 39.1812 7.33285 40.7811 7.70081C39.9322 7.18111 39.1043 6.63296 38.3053 6.04687C38.192 6.06204 38.0652 6.05446 37.9653 6.06015C36.6707 6.09049 36.2251 6.09998 35.8429 5.92738C35.5106 5.80599 35.1918 5.40957 35.4914 5.09661C35.7469 4.86521 36.1368 4.93729 36.4556 4.95815C36.1714 4.73055 35.864 4.41759 35.8429 4.05531C35.2571 3.52992 34.6924 2.97798 34.1507 2.40137C34.1085 2.41844 34.0566 2.41844 34.0009 2.39379C33.2576 1.9784 32.4432 1.54975 32.0053 0.792955C31.6019 0.0380611 32.326 -0.255932 32.8811 0.237215C33.1692 0.514135 33.5707 1.02625 33.7877 1.48905C34.4369 2.16808 34.9863 2.78641 35.9447 3.66269C36.0273 3.54699 36.1598 3.47112 36.3404 3.47302C36.8897 3.49768 37.4256 4.16912 37.7233 4.61864C37.6599 4.35689 37.6215 4.08756 37.5927 3.82202C37.5677 3.58303 37.5351 3.30801 37.708 3.11264C37.9865 2.83003 38.3802 3.14489 38.4897 3.43509C38.8008 4.1217 38.6568 4.89746 38.5358 5.61062C38.5761 5.70546 38.5761 5.75098 38.5761 5.79271C39.4769 6.44518 40.4104 7.05213 41.367 7.62115C41.0923 7.23422 40.6102 6.58744 40.7389 6.12464C41.0289 5.42854 41.8202 5.99755 42.1045 6.40156C42.6289 7.073 42.94 7.85255 43.2185 8.66434C44.1924 9.18405 45.1835 9.6734 46.1842 10.1362C44.2711 8.54675 45.1527 7.26077 45.9825 7.60787C46.6874 7.96825 47.0831 8.74211 47.3904 9.44579C47.4461 8.99437 47.909 8.60365 48.3085 8.99627C48.733 9.53683 48.6369 10.3486 48.4929 10.9764C48.4775 11.0447 48.4333 11.0884 48.3834 11.1073C50.8688 12.1562 53.4177 13.0875 55.9972 13.8993C55.7898 13.7627 55.5939 13.6319 55.4076 13.5029C55.3672 13.4896 53.9324 12.4919 52.7627 11.4411C49.1191 8.14275 47.2963 4.39293 44.5919 1.4056C44.2711 1.15902 44.1655 1.15144 44.1962 0.994007C44.0214 0.804335 44.2096 0.612766 44.3748 0.66777C44.419 0.682945 44.4536 0.713293 44.4747 0.751228C44.6053 0.880205 44.7302 1.00918 44.8531 1.14575C45.4581 1.60286 47.8859 3.76511 49.217 5.21231C51.2011 7.56045 52.4074 10.3126 55.0368 12.7063C55.4633 13.1008 56.2872 13.6717 57.3033 14.3014C57.3168 14.3052 57.3302 14.309 57.3456 14.3147C57.3936 14.328 57.4262 14.3564 57.4454 14.3886C59.6812 15.7638 62.7851 17.3987 64.7327 18.146C61.5558 16.4978 58.427 13.9334 56.026 10.7488C55.3461 9.87635 54.6565 9.00196 54.0938 8.04791C54.0784 8.04032 54.065 8.03274 54.0515 8.02325C53.9459 7.98532 53.9036 7.84686 53.9632 7.75581C54.0016 7.67994 54.136 7.6496 54.1956 7.68753C54.501 7.85255 54.7929 8.07636 55.0753 8.26983C59.372 11.4449 60.6627 13.6148 63.3344 15.8965C64.727 17.0649 65.939 17.8748 66.9051 18.4344C71.8894 18.8421 79.1267 19.9574 84.5548 21.5791C84.6201 21.5981 84.6681 21.655 84.6796 21.7214C84.7238 21.7517 84.7545 21.801 84.7622 21.8541C84.7718 21.9585 84.693 22.0419 84.597 22.0552L84.5759 22.0609ZM51.2818 17.4613C50.938 17.4784 50.5942 17.4993 50.2561 17.5201C50.2619 17.5315 50.2657 17.5429 50.2715 17.5524C50.9457 17.7364 51.6045 17.9165 52.246 18.091C52.4093 18.0778 52.5725 18.1157 52.7243 18.1745C52.7838 18.1954 52.9682 18.2636 53.1603 18.3395C53.4446 18.4173 53.7269 18.495 54.0073 18.5709C56.512 18.3471 59.6332 18.2276 62.0379 18.2352C58.8034 17.8065 57.2092 17.0991 51.2818 17.4594V17.4613ZM67.6926 18.882C68.6261 19.36 69.2081 19.5515 69.3483 19.616C73.33 20.7939 77.3501 20.921 79.2766 20.6308C75.4216 19.8114 71.415 19.2651 67.6926 18.882ZM80.0602 20.8015C80.0314 20.8318 79.9911 20.8565 79.945 20.8678C77.473 21.4767 72.5597 21.0139 68.7413 19.8076C68.701 19.8246 68.653 19.8284 68.6069 19.8152C67.4448 19.4851 66.2655 19.1077 65.1265 18.6904C61.7729 18.514 58.4116 18.5842 55.0657 18.8554C63.8857 21.2377 70.2414 22.6394 81.7985 21.9338C82.4938 21.8902 83.1891 21.8428 83.8825 21.7707C82.6436 21.4122 81.3644 21.0898 80.066 20.7996L80.0602 20.8015Z" fill="#596F52"/>
<path d="M146.547 19.2956C146.545 19.2235 146.573 19.1723 146.616 19.14C143.47 18.7284 140.283 18.4951 137.112 18.4288C136.881 18.425 136.874 18.0589 137.135 18.0646C140.281 18.1158 143.756 18.4041 146.806 18.8005C146.831 18.7702 146.867 18.7493 146.91 18.7417C146.917 18.6943 146.944 18.6507 146.986 18.6241C148.404 17.7118 149.111 17.0176 150.238 17.5088C151.128 17.9944 150.54 18.7208 149.771 18.8764C149.401 18.975 149.019 19.0319 148.636 19.0623C149.889 19.2576 151.137 19.4909 152.37 19.7697C152.428 19.7052 152.52 19.6939 152.601 19.6692C152.968 19.5573 154.299 19.0471 155.119 19.1533C156.01 19.2747 156.509 20.3406 154.869 20.4089C155.828 20.684 156.773 20.995 157.702 21.3459C157.808 21.3023 157.931 21.2757 158.027 21.2435C159.266 20.8717 159.692 20.7427 160.109 20.8091C160.46 20.8376 160.877 21.1354 160.674 21.5166C160.489 21.8068 160.095 21.841 159.782 21.9054C160.118 22.0496 160.499 22.2696 160.618 22.6129C161.325 22.9638 162.018 23.3432 162.698 23.7566C162.735 23.7282 162.784 23.7149 162.844 23.7244C163.672 23.9273 164.573 24.1265 165.201 24.7391C165.794 25.3575 165.176 25.8335 164.507 25.5054C164.156 25.3157 163.63 24.9288 163.293 24.5419C162.485 24.0582 161.788 23.6087 160.624 23.0207C160.576 23.1535 160.468 23.2616 160.293 23.3071C159.759 23.4285 159.058 22.924 158.649 22.5712C158.78 22.8083 158.891 23.0549 158.993 23.3033C159.081 23.5271 159.189 23.7832 159.074 24.0165C158.882 24.3636 158.419 24.1644 158.232 23.9122C157.746 23.3337 157.675 22.5465 157.597 21.8277C157.531 21.748 157.518 21.7025 157.508 21.6627C156.463 21.2738 155.399 20.9362 154.322 20.6422C154.69 20.94 155.332 21.4351 155.334 21.9187C155.244 22.666 154.327 22.3284 153.943 22.0136C153.256 21.5052 152.743 20.8376 152.257 20.1282C151.176 19.8854 150.088 19.6787 148.999 19.4966C151.275 20.5227 150.776 21.9946 149.883 21.8789C149.107 21.7196 148.513 21.0785 148.026 20.4829C148.095 20.9305 147.755 21.4313 147.263 21.1581C146.706 20.7503 146.579 19.9423 146.547 19.2993V19.2956Z" fill="#596F52"/>
<path d="M168.593 8.38558C168.182 8.61129 167.707 8.70233 167.248 8.68337C166.182 8.63785 164.701 8.22057 164.502 8.12194C164.248 8.10866 163.987 8.10297 163.749 8.09918C164.625 8.44817 165.798 9.09875 165.043 9.66018C164.434 9.98262 163.386 9.00581 162.907 8.65681C162.377 8.23574 162.258 8.16177 162.22 8.12194C161.993 8.12952 161.765 8.13901 161.536 8.15229C161.836 8.47663 161.586 8.72699 161.365 8.68337C161.188 8.65491 161.04 8.52784 160.902 8.42162C160.831 8.36851 160.804 8.27368 160.843 8.19591C160.28 8.23574 159.721 8.28126 159.158 8.33058C159.951 8.52215 160.724 8.90149 161.35 9.3567C162.262 10.0585 162.156 10.9841 160.86 10.8551C160.19 10.8077 159.821 10.3658 157.915 8.59233C157.806 8.64164 157.687 8.56387 157.662 8.46335C157.27 8.49559 156.867 8.52404 155.952 8.63216C156.636 9.03805 156.31 10.0926 153.498 9.54258C153.354 9.51603 153.21 9.48758 153.066 9.46102C153.217 9.94658 152.781 10.2975 152.28 10.4378C155.691 11.1453 154.585 12.344 153.471 12.1297C152.62 12.033 151.846 11.5152 150.983 11.0239C152.547 12.4104 151.475 13.465 150.361 12.5641C148.963 11.5284 148.191 10.398 148.072 9.98641C147.845 10.0338 147.616 10.0812 147.39 10.1287C147.505 10.1932 147.601 10.2823 147.651 10.4094C147.724 10.7091 147.346 10.7887 147.144 10.6503C146.935 10.5497 146.744 10.4189 146.539 10.3127C146.408 10.3411 146.276 10.3714 146.145 10.4018C146.552 10.8418 146.335 11.7276 144.32 11.7428C145.185 12.1468 145.179 13.0439 143.727 13.1843C143.009 13.2431 142.288 13.0894 141.629 12.8125C142.838 13.9392 141.668 15.0013 140.385 13.3133C140.045 12.8429 139.807 12.2739 139.705 12.0709C139.129 12.234 138.551 12.4009 137.974 12.5697C138.303 12.6323 138.981 12.8182 139.207 13.0591C139.478 13.3702 139.254 13.7836 138.925 13.9411C137.944 14.4835 136.127 14.5101 135.013 14.364C135.245 14.4854 135.47 14.6201 135.685 14.7699C136.134 15.1019 136.772 15.5286 136.678 16.1621C136.589 16.6117 136.157 16.7293 135.769 16.5908C134.617 16.2152 133.92 15.1758 133.242 14.218C133.219 14.1876 133.211 14.1516 133.211 14.1156C133.163 14.0985 133.13 14.0587 133.113 14.015C131.144 14.6049 130.051 14.9312 128.791 15.2726C129.281 15.2479 129.771 15.2441 130.253 15.3484C130.689 15.4414 131.699 15.7581 131.244 16.3442C130.812 16.972 130.009 16.6989 129.41 16.5111C128.893 16.3537 128.401 16.1147 127.917 15.889C127.804 15.8568 127.733 15.7259 127.794 15.6197C127.766 15.6007 127.744 15.5779 127.725 15.5533C127.406 15.6348 127.084 15.7183 126.763 15.7999C127.249 16.0578 127.024 16.532 126.702 16.4466C126.594 16.4201 126.498 16.3556 126.402 16.3044C126.273 16.2058 125.997 16.1659 125.972 15.999C125.557 16.1033 125.351 16.1508 123.866 16.5472C126.961 16.8165 129.287 17.3722 132.961 17.2205C133.061 17.2167 133.149 17.2964 133.153 17.395C133.146 17.6283 132.877 17.6093 132.76 17.653C129.381 18.5406 125.029 17.9754 119.948 17.6055C119.627 17.6909 119.307 17.7781 118.988 17.8654C118.942 17.9109 118.884 17.9223 118.83 17.9071L117.25 18.3358C117.261 18.368 117.267 18.4022 117.265 18.442C117.25 18.6468 117.027 18.7113 116.837 18.7644C118.062 18.9086 119.284 19.0793 120.501 19.2766C120.572 19.1798 120.743 19.1438 120.841 19.0755C120.955 19.0148 121.062 18.9503 121.193 18.9389C121.435 18.92 121.602 19.1931 121.354 19.4188C122.146 19.5535 123.171 19.7375 124.564 20.0106C124.623 19.9954 124.669 20.0106 124.719 20.0409C125.536 20.2022 126.35 20.3748 127.162 20.5568C127.182 20.5379 127.205 20.5265 127.232 20.5208C127.339 20.3766 127.962 20.0865 128.157 19.9764C128.751 19.6768 129.394 19.4055 130.072 19.4055C130.823 19.3676 131.075 20.278 130.178 20.6555C130.451 20.6725 130.722 20.7162 130.981 20.8091C131.448 20.94 131.78 21.3592 131.79 21.7347C132.11 21.8276 132.589 21.9661 133.244 22.1672C133.689 20.7048 134.87 20.4942 134.924 21.1259C134.949 21.3345 134.797 21.5052 134.669 21.655C135.354 21.3971 136.682 21.3629 136.593 22.1804C136.476 22.5693 136.113 22.6755 135.733 22.7134C136.052 22.8348 136.568 23.1022 136.714 23.4076C137.358 23.6731 137.992 23.9558 138.616 24.2592C138.278 23.7775 137.965 23.2502 137.969 22.6603C138.009 21.9699 138.844 21.6228 139.265 23.1478C139.336 22.9277 139.421 22.7115 139.54 22.5143C139.793 22.1046 140.254 21.5583 140.742 21.4445C141.526 21.3041 141.823 22.8367 140.485 24.0544C141.364 23.7206 142.273 23.4607 143.22 23.694C143.785 23.8458 144.866 24.4679 144.278 25.126C143.992 25.3764 143.525 25.4655 143.005 25.4712C144.372 26.1389 144.463 27.1479 144.004 27.5368C144.071 27.5937 144.14 27.6487 144.207 27.7056C145.029 27.4324 146.593 27.2447 147.24 27.9256C147.453 28.1229 147.557 28.58 147.213 28.6976C146.493 28.8455 145.504 28.4813 144.925 28.3979C144.933 28.4074 144.941 28.4187 144.947 28.4301C145.214 28.3808 146.685 29.0921 147.19 29.9247C147.465 30.5526 146.493 30.8522 145.452 29.7578C145.542 30.0632 145.596 30.3781 145.546 30.691C145.465 31.0248 145.114 31.0817 144.862 30.8826C144.29 30.4369 144.443 29.4923 144.353 28.6122C144.353 28.5496 144.338 28.4737 144.336 28.4036C144.253 28.377 144.199 28.2879 144.211 28.2006C144.025 28.0318 143.833 27.8706 143.639 27.7151C142.936 27.8877 142.2 27.4647 141.633 27.0152C141.944 27.5045 142.213 28.0925 142.087 28.6596C141.998 29.02 141.605 29.2571 141.241 29.1528C140.998 29.0883 140.794 28.9233 140.619 28.7526C140.037 28.1684 139.703 27.3983 139.478 26.6169C139.469 27.0891 139.492 27.5576 139.307 27.9503C139.108 28.47 138.224 28.6843 138.218 27.3699C138.239 26.8217 138.333 26.2679 138.581 25.7747C138.739 25.4826 138.9 25.1697 139.121 24.9174C138.745 24.722 138.36 24.5343 137.976 24.356C138.032 24.4603 138.078 24.5684 138.113 24.6803C138.17 24.9269 137.913 25.0824 137.715 24.9193C137.544 24.7751 137.448 24.5684 137.339 24.3787C137.294 24.2991 137.331 24.1947 137.406 24.1454C137.39 24.1246 137.379 24.1018 137.373 24.0809C137.16 23.9861 136.947 23.8951 136.732 23.8059C136.584 24.1397 136.004 24.3636 135.314 23.9406C135.789 25.1014 134.53 25.8032 133.705 23.1705C133.582 22.8063 133.532 22.6793 133.524 22.6356C133.351 22.5787 133.178 22.5256 133.003 22.4725C133.259 22.9505 132.794 23.1326 132.569 22.8082C132.433 22.6527 132.26 22.2847 132.252 22.2449C132.064 22.1899 131.876 22.1349 131.686 22.0799C131.584 22.2165 131.407 22.3208 131.136 22.3663C130.626 22.4479 130.128 22.2961 129.656 22.0723C130.145 22.5825 130.67 23.3109 130.188 23.8268C129.527 24.3161 128.572 23.5574 128.196 23.0112C127.744 22.4004 127.506 21.6626 127.268 20.9514C126.63 20.8053 125.989 20.6668 125.347 20.5322C125.705 20.9817 125.24 21.2928 124.835 20.8869C124.679 20.7579 124.573 20.6403 124.445 20.5037C124.402 20.4601 124.395 20.3975 124.41 20.3406C123.469 20.1547 122.524 19.9802 121.577 19.8209C121.66 19.8816 121.734 19.948 121.794 20.0314C121.877 20.1528 121.844 20.352 121.7 20.4108C121.375 20.5436 120.766 19.8835 120.609 19.7412C120.553 19.7412 120.499 19.7128 120.463 19.6692C120.438 19.6578 120.417 19.6445 120.398 19.6293C118.604 19.3486 116.8 19.1191 114.993 18.9503L113.752 19.2879C113.877 19.3278 113.992 19.3941 114.075 19.4985C114.146 19.6123 114.107 19.7716 113.996 19.8456C113.842 19.9423 113.64 19.8797 113.141 19.764C113.003 19.7223 112.751 19.7071 112.69 19.5724C109.171 20.5075 105.377 21.4369 101.765 21.9016C102.998 22.0818 104.237 22.2601 105.483 22.3132C107.961 22.3739 111.203 21.5545 118.899 21.2795C119.264 21.2567 119.633 21.2416 119.996 21.2036C120.165 21.1865 120.332 21.1714 120.503 21.1695C120.786 21.1429 120.83 21.4919 120.59 21.5355C120.196 21.5811 120.565 21.509 118.73 21.71C116.548 21.932 114.441 22.5731 112.279 22.9145C108.697 23.5442 104.377 23.4702 100.816 22.3625C100.729 22.336 100.017 22.1103 100.001 22.1027C94.5253 22.6432 88.2771 22.5389 84.4337 22.0628C84.3377 22.0515 84.257 21.9661 84.2686 21.8618C84.2743 21.8068 84.305 21.7594 84.3492 21.729C84.3607 21.6645 84.4088 21.6076 84.4741 21.5868C89.9021 19.9651 97.1394 18.8498 102.124 18.442C103.09 17.8825 104.302 17.0707 105.694 15.9042C108.366 13.6243 109.657 11.4526 113.954 8.27747C114.234 8.084 114.526 7.86019 114.831 7.69518C114.893 7.65724 115.027 7.68759 115.066 7.76346C115.125 7.8545 115.083 7.99296 114.977 8.0309C114.964 8.03848 114.949 8.04797 114.935 8.05555C114.372 9.0096 113.683 9.88399 113.003 10.7565C110.602 13.9392 107.473 16.5035 104.296 18.1537C106.244 17.4083 109.348 15.7733 111.583 14.3963C111.603 14.364 111.635 14.3356 111.683 14.3223C111.697 14.3166 111.712 14.3147 111.726 14.309C112.742 13.6793 113.566 13.1084 113.992 12.7139C116.621 10.3202 117.828 7.5662 119.812 5.21996C121.141 3.77086 123.569 1.6086 124.176 1.15339C124.299 1.01872 124.424 0.887848 124.554 0.758871C124.575 0.720936 124.61 0.690588 124.654 0.675415C124.817 0.620409 125.005 0.811979 124.831 1.00165C124.863 1.15908 124.758 1.16856 124.437 1.41324C121.733 4.40057 119.908 8.15228 116.266 11.4488C115.096 12.5015 113.662 13.4972 113.621 13.5105C113.435 13.6395 113.239 13.7704 113.032 13.9069C115.609 13.0951 118.158 12.1639 120.645 11.115C120.595 11.096 120.553 11.0524 120.536 10.9841C120.392 10.3563 120.296 9.54448 120.72 9.00391C121.122 8.61129 121.585 9.00391 121.638 9.45344C121.946 8.74975 122.343 7.97589 123.046 7.61551C123.876 7.26841 124.756 8.55249 122.845 10.1438C123.843 9.68104 124.835 9.19358 125.81 8.67199C126.087 7.86019 126.4 7.08064 126.922 6.4092C127.209 6.0052 128 5.43618 128.29 6.13228C128.419 6.59698 127.937 7.24376 127.662 7.62879C128.62 7.05788 129.554 6.45093 130.453 5.80035C130.453 5.75863 130.453 5.71121 130.493 5.61827C130.372 4.9032 130.228 4.12745 130.539 3.44273C130.649 3.15064 131.042 2.83578 131.321 3.12029C131.494 3.31375 131.461 3.59068 131.436 3.82966C131.407 4.0952 131.367 4.36454 131.306 4.62628C131.603 4.17866 132.141 3.50532 132.688 3.48067C132.869 3.47877 133 3.55464 133.084 3.67034C134.043 2.79405 134.592 2.17572 135.241 1.49669C135.458 1.03579 135.86 0.521782 136.148 0.244862C136.703 -0.248287 137.427 0.0457039 137.024 0.800598C136.586 1.55739 135.771 1.98795 135.03 2.40143C134.974 2.42798 134.924 2.42798 134.88 2.40902C134.338 2.98562 133.774 3.53757 133.188 4.06296C133.167 4.42523 132.859 4.73819 132.573 4.9658C132.892 4.94304 133.282 4.87286 133.537 5.10426C133.837 5.41722 133.52 5.81553 133.186 5.93502C132.804 6.10952 132.358 6.09814 131.063 6.06779C130.964 6.0621 130.837 6.06779 130.724 6.05451C129.923 6.6387 129.095 7.18875 128.248 7.70845C129.848 7.34049 129.656 8.49939 128.83 8.85407C128.069 9.17272 126.648 9.03426 126.264 9.02288C126.181 9.02098 126.087 9.03236 126.016 8.98684C124.902 9.58241 123.765 10.1382 122.61 10.6579C122.989 10.5858 123.371 10.5384 123.755 10.5346C124.537 10.4815 125.301 11.0258 124.577 11.7295C123.624 12.5015 122.754 12.0197 121.143 11.5171C121.095 11.5038 121.058 11.4678 121.037 11.426C120.995 11.4298 120.955 11.4184 120.922 11.3957C118.112 12.5792 114.872 13.7647 111.873 14.6467C110.129 15.7259 107.953 16.9284 105.792 17.9128C111.478 16.8013 114.584 15.8188 122.793 16.4618C126.177 15.5552 124.032 16.1489 127.739 15.172C128.127 14.2787 128.841 12.7006 129.742 12.3137C129.984 12.2208 130.291 12.2113 130.487 12.399C131.223 13.1008 129.953 14.218 129.125 14.7984C130.026 14.5518 130.478 14.4191 131.029 14.2559C131.029 14.254 131.029 14.2502 131.029 14.2483C131.021 14.2066 131.025 14.163 131.046 14.1232C131.173 13.888 131.298 13.6186 131.553 13.4991C131.79 13.3891 132.179 13.5883 131.912 13.9923C132.314 13.8709 132.717 13.7533 133.119 13.6319C133.032 13.0155 133.843 10.7413 134.878 9.84606C135.274 9.49137 135.965 9.2448 136.394 9.67725C136.826 10.1306 136.783 10.7204 136.413 11.1965C135.765 12.0842 134.984 12.6608 134.21 13.2734C134.988 12.841 135.986 12.5261 136.937 12.4901C137.352 12.3668 137.765 12.2454 138.182 12.124C138.172 12.0842 138.176 12.0425 138.199 12.0026C138.301 11.8281 138.299 11.5702 138.501 11.4696C138.733 11.3634 138.983 11.5778 138.844 11.9343C139.115 11.8566 139.388 11.7788 139.661 11.701C139.515 11.3122 139.411 10.9082 139.398 10.4947C139.398 8.0859 140.854 7.85071 141.213 8.70044C141.295 8.92046 141.24 9.6488 141.065 10.1552C140.988 10.3885 140.913 10.6237 140.827 10.8532C141.261 10.2576 141.779 9.72846 142.425 9.34912C143.003 9.0115 143.656 8.6625 144.345 8.70992C144.635 8.74596 144.856 9.00581 144.833 9.29411C144.824 9.59759 144.599 9.86502 144.29 10.1021C144.833 10.0035 145.356 9.99021 145.73 10.1287C145.945 10.0775 146.161 10.0281 146.378 9.97693C146.356 9.92193 146.362 9.85744 146.399 9.80812C146.579 9.59759 146.775 9.21824 147.1 9.25807C147.355 9.36998 147.288 9.59759 147.136 9.80623C147.328 9.7626 147.522 9.72277 147.714 9.68104C147.655 9.25049 147.939 7.60603 148.752 6.72216C149.009 6.44334 149.48 6.27643 149.802 6.54387C150.04 6.79424 150.077 7.11098 150.017 7.43153C151.825 5.26927 153.071 6.28971 152.107 7.37084C152.395 7.27221 152.691 7.19254 152.996 7.15271C154.525 6.90993 154.698 8.53163 152.011 8.63405C152.117 8.6663 152.301 8.72889 152.414 8.782C152.653 8.74217 152.893 8.70423 153.131 8.66819C153.788 8.34954 154.591 8.25471 155.219 8.36851C155.549 8.32678 155.879 8.28506 156.21 8.24712C156.217 8.23384 156.227 8.22246 156.237 8.20919C156.452 7.98348 156.638 7.63448 156.978 7.59844C157.228 7.60603 157.347 7.86398 157.074 8.15039C157.23 8.13332 157.383 8.11814 157.539 8.10297C157.55 8.03658 157.608 7.9683 157.695 7.95692C157.7 7.44481 157.702 6.92511 157.802 6.42627C158.027 5.59361 158.837 4.64904 159.594 5.09477C160.067 5.38118 159.717 6.22143 159.446 6.68802C159.619 6.54008 159.8 6.39972 159.986 6.27453C161.884 5.06632 162.421 5.82122 162.055 6.46421C161.611 7.24186 160.376 7.65155 159.362 7.94365C159.786 7.9114 161.649 7.77863 162.377 7.75018C162.385 7.7388 162.393 7.72932 162.402 7.71794C162.696 7.47516 163.002 7.08633 163.424 7.12995C163.67 7.17358 163.791 7.49223 163.42 7.73311C163.779 7.73311 163.979 7.7407 164.415 7.75777C164.419 7.7407 164.423 7.72173 164.432 7.70466C164.851 6.9308 165.291 6.03555 166.132 5.64293C166.974 5.26358 167.944 6.19108 166.443 7.20203C166.749 7.15271 167.058 7.12237 167.369 7.11857C167.803 7.11478 168.27 7.05977 168.673 7.25514C169.175 7.52826 169.075 8.14849 168.6 8.39127L168.593 8.38558ZM89.7215 20.6308C91.648 20.921 95.6681 20.792 99.6517 19.6161C99.79 19.5516 100.374 19.36 101.307 18.882C97.585 19.2652 93.5784 19.8114 89.7235 20.6308H89.7215ZM103.875 18.6924C102.736 19.1096 101.557 19.4852 100.395 19.8171C100.349 19.8304 100.301 19.8266 100.259 19.8095C96.4422 21.0158 91.527 21.4786 89.055 20.8698C89.007 20.8584 88.9686 20.8338 88.9398 20.8034C87.6414 21.0936 86.3622 21.4161 85.1233 21.7745C85.8147 21.8466 86.512 21.894 87.2073 21.9377C98.7644 22.6432 105.12 21.2435 113.94 18.8593C110.592 18.5861 107.231 18.5179 103.879 18.6943L103.875 18.6924ZM114.991 18.571C115.269 18.4951 115.554 18.4173 115.838 18.3396C116.03 18.2637 116.212 18.1954 116.274 18.1746C116.426 18.1158 116.589 18.0778 116.752 18.0911C117.394 17.9147 118.052 17.7345 118.727 17.5524C118.73 17.5429 118.736 17.5316 118.742 17.5202C118.404 17.4993 118.06 17.4785 117.716 17.4614C111.789 17.101 110.195 17.8085 106.958 18.2371C109.363 18.2296 112.486 18.3491 114.991 18.5729V18.571Z" fill="#596F52"/>
</g>
<defs>
<clipPath id="clip0_426_25">
<rect width="169" height="31" fill="white" transform="matrix(1 0 0 -1 0 31)"/>
</clipPath>
</defs>
</svg>
