<svg width="16" height="12" viewBox="0 0 16 12" fill="none" xmlns="http://www.w3.org/2000/svg">
<g clip-path="url(#clip0_3_53333)">
<rect width="16" height="12" fill="white"/>
<path fill-rule="evenodd" clip-rule="evenodd" d="M0 0V12H16V0H0Z" fill="#2E42A5"/>
<mask id="mask0_3_53333" style="mask-type:luminance" maskUnits="userSpaceOnUse" x="0" y="0" width="16" height="12">
<path fill-rule="evenodd" clip-rule="evenodd" d="M0 0V12H16V0H0Z" fill="white"/>
</mask>
<g mask="url(#mask0_3_53333)">
<path d="M-1.78174 11.1428L1.73911 12.6318L16.0797 1.61903L17.9369 -0.593715L14.1719 -1.09139L8.32266 3.65434L3.61466 6.85186L-1.78174 11.1428Z" fill="white"/>
<path d="M-1.2998 12.1857L0.493903 13.0498L17.2699 -0.799665H14.7513L-1.2998 12.1857Z" fill="#F50100"/>
<path d="M17.7817 11.1428L14.2609 12.6318L-0.0797253 1.61903L-1.93689 -0.593715L1.82815 -1.09139L7.67734 3.65434L12.3853 6.85186L17.7817 11.1428Z" fill="white"/>
<path d="M17.6616 11.8908L15.8679 12.7549L8.72451 6.8252L6.60665 6.1627L-2.11557 -0.586903H0.403002L9.12032 6.00249L11.4358 6.79691L17.6616 11.8908Z" fill="#F50100"/>
<mask id="path-7-inside-1_3_53333" fill="white">
<path fill-rule="evenodd" clip-rule="evenodd" d="M9.88879 -1H6.11102V4H-0.986328V8H6.11102V13H9.88879V8H17.0137V4H9.88879V-1Z"/>
</mask>
<path fill-rule="evenodd" clip-rule="evenodd" d="M9.88879 -1H6.11102V4H-0.986328V8H6.11102V13H9.88879V8H17.0137V4H9.88879V-1Z" fill="#F50100"/>
<path d="M6.11102 -1V-2H5.11102V-1H6.11102ZM9.88879 -1H10.8888V-2H9.88879V-1ZM6.11102 4V5H7.11102V4H6.11102ZM-0.986328 4V3H-1.98633V4H-0.986328ZM-0.986328 8H-1.98633V9H-0.986328V8ZM6.11102 8H7.11102V7H6.11102V8ZM6.11102 13H5.11102V14H6.11102V13ZM9.88879 13V14H10.8888V13H9.88879ZM9.88879 8V7H8.88879V8H9.88879ZM17.0137 8V9H18.0137V8H17.0137ZM17.0137 4H18.0137V3H17.0137V4ZM9.88879 4H8.88879V5H9.88879V4ZM6.11102 0H9.88879V-2H6.11102V0ZM7.11102 4V-1H5.11102V4H7.11102ZM-0.986328 5H6.11102V3H-0.986328V5ZM0.0136719 8V4H-1.98633V8H0.0136719ZM6.11102 7H-0.986328V9H6.11102V7ZM7.11102 13V8H5.11102V13H7.11102ZM9.88879 12H6.11102V14H9.88879V12ZM8.88879 8V13H10.8888V8H8.88879ZM17.0137 7H9.88879V9H17.0137V7ZM16.0137 4V8H18.0137V4H16.0137ZM9.88879 5H17.0137V3H9.88879V5ZM8.88879 -1V4H10.8888V-1H8.88879Z" fill="white" mask="url(#path-7-inside-1_3_53333)"/>
</g>
</g>
<defs>
<clipPath id="clip0_3_53333">
<rect width="16" height="12" fill="white"/>
</clipPath>
</defs>
</svg>
