<svg xmlns="http://www.w3.org/2000/svg" width="512" height="512" fill="none" xmlns:v="https://vecta.io/nano"><path fill="#2e372e" d="M0 0h512v512H0z"/><g fill="#fbfcfb"><path d="M123.099 379.451c-1.094-1.157-1.834-2.477-2.222-3.937a8.47 8.47 0 0 1-.036-4.334c.365-1.426 1.106-2.664 2.246-3.727.776-.724 1.669-1.262 2.704-1.612a9.16 9.16 0 0 1 3.244-.479c1.128.035 2.234.292 3.304.759s2.045 1.168 2.915 2.091a10.32 10.32 0 0 1 1.905 2.862c.47 1.052.717 2.15.764 3.272a8.43 8.43 0 0 1-.494 3.247c-.376 1.039-.999 1.963-1.869 2.781a8.34 8.34 0 0 1-3.715 1.998c-1.434.362-2.904.327-4.432-.106-1.516-.432-2.962-1.366-4.326-2.815h.012zm1.316-.608c.612.643 1.27 1.052 1.975 1.215a4.47 4.47 0 0 0 2.152-.035 7.63 7.63 0 0 0 2.116-.911c.682-.42 1.305-.899 1.869-1.425.905-.841 1.622-1.799 2.128-2.874.505-1.063.752-2.126.717-3.166s-.423-1.963-1.188-2.769c-.67-.712-1.469-1.11-2.386-1.191s-1.857.081-2.821.49c-.976.409-1.87 1.005-2.716 1.788-.999.923-1.763 1.916-2.316 2.979-.553 1.051-.799 2.091-.764 3.107.047 1.017.458 1.94 1.246 2.781l-.012.011zm17.799 18.249c-.999-.818-1.822-1.741-2.457-2.769s-1.07-2.115-1.293-3.236a7.7 7.7 0 0 1 .023-3.318c.247-1.087.741-2.091 1.505-3.014s1.658-1.612 2.704-2.08c1.034-.467 2.151-.701 3.35-.712 1.188 0 2.398.21 3.621.666s2.375 1.121 3.468 2.009l1.258 1.133 1.046 1.168c.318.398.576.783.776 1.157.153.187.235.339.247.444 0 .117 0 .245-.059.385-.211.433-.482.9-.834 1.402l-.835 1.134c-.165.198-.329.28-.506.245s-.293-.14-.376-.327-.082-.397 0-.631c.259-.759.376-1.425.365-2.021-.012-.584-.188-1.157-.518-1.694s-.858-1.11-1.587-1.706c-.87-.712-1.834-1.098-2.88-1.168-1.058-.07-2.081.128-3.092.584-1.011.467-1.869 1.133-2.61 2.021-.881 1.063-1.493 2.185-1.845 3.365s-.388 2.313-.13 3.411.894 2.045 1.87 2.839a5.18 5.18 0 0 0 1.716.923 6.02 6.02 0 0 0 1.999.269c.693-.024 1.352-.222 1.986-.585.318-.163.623-.163.917 0s.329.374.106.655c-.094.105-.259.257-.517.467a8.29 8.29 0 0 1-.894.607l-.975.608a1.14 1.14 0 0 1-.482.175 1.32 1.32 0 0 1-.529-.047c-.588-.14-1.294-.42-2.14-.841-.846-.409-1.634-.923-2.386-1.53l-.012.012zm13.813 9.626c-.117-.07-.235-.187-.329-.327-.106-.152-.118-.28-.035-.397.094-.164.247-.234.446-.211a1.47 1.47 0 0 1 .529.129c.6.234 1.117.362 1.576.385.446.024.823-.21 1.128-.677l5.808-9.124c.258-.409.364-.701.317-.853-.059-.164-.282-.362-.682-.608l-1.434-.899c-.353-.222-.823-.28-1.399-.175s-1.046.257-1.434.42l-.447.199c-.176.07-.341.117-.529.14-.176.023-.329 0-.447-.082-.082-.047-.129-.117-.164-.198a.3.3 0 0 1 .035-.246c.094-.14.212-.268.376-.409.165-.128.435-.385.811-.759s.87-.958 1.493-1.752c.153-.211.306-.304.447-.304s.247.023.329.082c.094.058.177.163.235.292l.259.514a4.42 4.42 0 0 0 .541.689c.223.234.576.502 1.058.806l6.654 4.171c.611.385 1.164.654 1.622.818l1.223.35.541.105c.164.024.282.07.364.117.094.058.153.152.165.269s0 .21-.059.292l-.858 1.448-.506.97-.447.76c-.035.058-.153.175-.341.327-.188.163-.341.187-.47.081s-.2-.245-.211-.42a2.07 2.07 0 0 1 .07-.666c.165-.619.188-1.157.082-1.636s-.423-.864-.917-1.18l-1.822-1.144a.89.89 0 0 0-.799-.094c-.271.105-.47.257-.6.456l-5.807 9.124c-.294.455-.329.888-.129 1.308s.54.841.987 1.262c.129.105.235.234.329.397a.42.42 0 0 1 0 .467c-.07.117-.2.164-.364.141a1.26 1.26 0 0 1-.435-.141l-1.07-.712-1.117-.806c-.364-.281-.74-.526-1.117-.76l-1.14-.654-1.164-.631-1.117-.666-.035.012zm23.829 13.622c-1.457-.666-2.633-1.612-3.55-2.827-.905-1.215-1.469-2.559-1.669-4.007-.2-1.461.023-2.886.67-4.288.447-.958 1.081-1.787 1.904-2.5s1.764-1.262 2.833-1.659c1.058-.385 2.175-.561 3.351-.526s2.339.316 3.491.853c1.07.491 2.011 1.133 2.845 1.94s1.482 1.717 1.952 2.745.729 2.091.776 3.189-.188 2.197-.682 3.271c-.6 1.297-1.505 2.372-2.692 3.248-1.199.865-2.575 1.39-4.138 1.554s-3.257-.164-5.067-.993h-.024zm.988-1.052c.811.374 1.575.503 2.281.398.717-.105 1.375-.386 1.975-.83.611-.444 1.14-.981 1.61-1.635s.87-1.32 1.187-2.021c.518-1.122.823-2.279.882-3.458.071-1.18-.106-2.243-.529-3.201s-1.14-1.659-2.139-2.127c-.894-.409-1.787-.479-2.657-.21-.882.269-1.681.771-2.434 1.507-.74.736-1.352 1.624-1.845 2.664-.577 1.226-.917 2.441-1.023 3.621s.047 2.243.47 3.166 1.164 1.636 2.198 2.115l.024.011zm14.213 7.022c-.141-.047-.259-.129-.388-.246-.118-.128-.165-.257-.118-.385.047-.152.165-.257.341-.304s.365-.047.576 0c.553.047 1.047.012 1.47-.093.423-.117.729-.433.893-.97l2.986-9.533c.2-.619.224-1.121.083-1.495s-.541-.748-1.188-1.122c-.164-.105-.305-.222-.411-.385-.106-.152-.141-.304-.106-.433.047-.128.153-.21.341-.245.176-.023.341-.023.47.023l1.235.433.964.409 1.081.385a16.63 16.63 0 0 0 1.752.432c.623.117 1.34.304 2.151.561 1.869.573 3.268 1.297 4.197 2.161s1.211 1.928.811 3.166c-.305.982-.776 1.659-1.387 2.033-.623.374-1.328.537-2.14.514-.07 0-.117.035-.141.105s0 .105.071.129c.482.268.952.619 1.411 1.04s.799.946 1.011 1.565.176 1.367-.094 2.266c-.341 1.099-.941 1.87-1.787 2.325s-1.846.666-3.01.631c-1.152-.035-2.41-.269-3.75-.689l-1.129-.409-1.422-.537-1.34-.456-1.646-.467-1.458-.363c-.364-.081-.482-.093-.317-.046h-.012zm7.818 1.098c1.034.315 1.904.257 2.633-.199.717-.455 1.223-1.121 1.505-2.009.235-.736.27-1.379.106-1.928s-.494-1.028-1.011-1.413c-.518-.398-1.2-.725-2.058-.982a2.33 2.33 0 0 0-.599-.093c-.224 0-.412.035-.576.128s-.282.257-.353.479l-1.129 3.61c-.152.491-.082.97.236 1.449.305.479.728.794 1.269.958h-.023zm1.387-7.722c.599.187 1.199.28 1.775.292.576 0 1.093-.14 1.564-.432.458-.293.811-.807 1.034-1.519.165-.538.235-1.028.212-1.496-.024-.455-.212-.864-.541-1.215s-.87-.63-1.611-.864c-.517-.164-.975-.21-1.375-.164s-.647.246-.764.608l-1.141 3.645c-.082.269-.047.502.13.701s.411.35.729.444h-.012zm11.721 12.652c-.141-.023-.271-.093-.412-.199s-.188-.233-.164-.373a.45.45 0 0 1 .341-.363c.188-.058.376-.093.54-.116.576 0 1.07-.094 1.482-.246s.67-.502.775-1.051l1.846-9.743c.118-.62.082-1.122-.106-1.519s-.623-.713-1.293-.958a1.3 1.3 0 0 1-.458-.339c-.13-.14-.177-.292-.141-.456.023-.14.117-.233.282-.28s.317-.07.458-.035l1.105.245 1.023.281.999.245 2.504.456 2.469.432 2.104.362 1.376.234c.094.023.2.058.317.128a.28.28 0 0 1 .141.316c-.117.759-.176 1.425-.164 1.986s0 .993-.071 1.285c-.011.093-.07.187-.141.292-.082.105-.153.152-.223.14-.094-.012-.2-.082-.318-.199s-.211-.292-.258-.514c-.153-.712-.329-1.308-.541-1.764s-.658-.747-1.328-.876l-2.845-.537c-.212-.035-.435-.012-.682.07s-.388.28-.447.572l-.823 4.311a1.18 1.18 0 0 0 .047.526c.059.187.165.292.294.327l2.351.444c.365.07.682 0 .917-.199.247-.21.494-.537.741-.981.094-.129.2-.234.306-.315.117-.082.223-.117.34-.094s.2.094.271.21c.059.117.07.257 0 .409l-.294 1.017-.223.958c-.071.338-.106.665-.13.958l-.106 1.028a.8.8 0 0 1-.141.455c-.082.14-.188.199-.305.175-.188-.035-.306-.163-.365-.373l-.117-.503c-.024-.479-.141-.817-.329-1.028-.189-.198-.412-.339-.659-.409-.317-.105-.682-.198-1.117-.28l-1.163-.222c-.283-.047-.471-.058-.588 0-.118.047-.2.21-.259.491l-.752 3.96c-.094.526-.094.888.012 1.075s.387.327.858.409l3.056.572c.717.14 1.387.024 1.999-.339.623-.362 1.093-.806 1.434-1.331a3.46 3.46 0 0 1 .247-.292c.106-.106.223-.152.364-.129s.224.105.247.245a1.17 1.17 0 0 1 0 .409c-.117.479-.282.97-.517 1.472l-.729 1.472c-.047.129-.153.234-.306.316a.7.7 0 0 1-.482.07l-2.08-.409-2.234-.456-2.245-.479-2.128-.432-1.211-.175-1.211-.14-1.187-.187.047-.012zm35.232 4.837a5.07 5.07 0 0 1-1.669-.398c-.506-.222-.941-.514-1.317-.876a10.42 10.42 0 0 1-1.023-1.145c-.211-.292-.482-.712-.787-1.25l-.905-1.694-.753-1.612c-.117-.292-.353-.549-.705-.771s-.764-.35-1.223-.386c-.117 0-.258.047-.435.152a.54.54 0 0 0-.282.444l-.259 3.739c-.035.56.071.958.33 1.203s.705.444 1.352.596c.188.035.364.105.517.198s.235.234.223.421c0 .14-.094.245-.247.315s-.294.106-.411.094l-.964-.082-.941-.117-.952-.093-.929-.059-1.305-.046c-.423 0-.846 0-1.269-.012-.423 0-.858-.023-1.305-.047-.141 0-.282-.07-.435-.163-.141-.105-.212-.211-.212-.327.012-.187.106-.316.294-.398a1.59 1.59 0 0 1 .517-.14c.635-.07 1.153-.21 1.529-.409s.588-.584.623-1.168l.682-10c.035-.608-.059-1.075-.306-1.414s-.705-.584-1.387-.748a1.26 1.26 0 0 1-.529-.28c-.141-.128-.212-.269-.2-.432 0-.14.094-.245.247-.316s.305-.105.447-.093l1.316.14 1.047.175a9.78 9.78 0 0 0 1.175.129c.564.035 1.223.047 1.963.023s1.54 0 2.387.059c1.175.081 2.222.268 3.162.584.929.304 1.658.771 2.187 1.39s.752 1.425.682 2.395c-.024.678-.2 1.273-.541 1.776a4.24 4.24 0 0 1-1.211 1.203c-.47.292-.94.514-1.422.643-.236.058-.318.186-.236.408a15.97 15.97 0 0 0 .8 1.823c.329.666.693 1.297 1.07 1.893l1.058 1.565a4.99 4.99 0 0 0 .952.876c.388.281.776.526 1.152.713s.658.304.846.339c.118.035.247.081.4.151s.212.199.2.386-.165.339-.459.444-.658.187-1.116.222c-.447.035-.917.047-1.411 0l-.012-.023zm-7.923-9.241c1.199.081 2.186-.106 2.974-.538.788-.444 1.211-1.273 1.27-2.512.047-.747-.095-1.355-.447-1.834-.341-.479-.788-.853-1.34-1.121s-1.141-.432-1.776-.468c-.423-.023-.752.024-.999.141-.247.128-.376.385-.411.782l-.271 4.51c-.023.42.059.689.259.829a1.44 1.44 0 0 0 .729.222l.012-.011zm17.975 9.334c-.612.012-1.141-.199-1.599-.631a2.17 2.17 0 0 1-.717-1.554c-.012-.654.188-1.203.635-1.647a2.17 2.17 0 0 1 1.563-.689 2.21 2.21 0 0 1 1.622.607c.447.421.682.958.694 1.613.012.607-.188 1.144-.611 1.588a2.13 2.13 0 0 1-1.587.701v.012zm21.913-2.36l-.847.07-1.458.105-1.704.117-1.622.14-1.834.234-2.305.304-2.033.257-1.105.14c-.071 0-.212-.047-.424-.164s-.329-.233-.341-.35c-.011-.14 0-.245.071-.327.059-.082.141-.164.223-.269l5.008-6.624c1.047-1.39 1.858-2.839 2.399-4.358.552-1.518.74-3.072.564-4.649-.129-1.133-.553-2.01-1.282-2.629-.728-.607-1.587-.864-2.574-.759a4.69 4.69 0 0 0-2.457 1.028c-.729.584-1.293 1.273-1.705 2.079-.082.152-.176.293-.305.421s-.271.21-.435.222c-.118.012-.235-.07-.365-.245s-.2-.398-.235-.678c-.035-.304.094-.736.388-1.297s.729-1.145 1.293-1.752 1.27-1.145 2.093-1.612a6.98 6.98 0 0 1 2.739-.865c1.164-.128 2.198 0 3.104.421.893.409 1.622 1.016 2.163 1.846.54.817.87 1.787.999 2.909.07.63.023 1.331-.141 2.091-.165.771-.4 1.53-.729 2.266a13.42 13.42 0 0 1-1.117 2.068c-.259.409-.646.935-1.152 1.577l-1.622 2.033-1.634 2.009-1.258 1.566c-.318.409-.482.642-.471.689 0 .094.189.14.518.152l1.434-.047 1.705-.152 1.869-.245 1.798-.304c.624-.117 1.117-.245 1.482-.374s.67-.338.905-.63c.235-.281.458-.678.67-1.169.082-.152.188-.327.329-.525s.306-.316.494-.339c.141-.012.235.035.294.14a.57.57 0 0 1 .07.339c-.035.28-.117.666-.223 1.156l-.329 1.531-.224 1.519c0 .327-.094.56-.258.677-.165.129-.306.199-.423.21v.047zm9.734-.491a5.18 5.18 0 0 1-.929.117c-.341.024-.541-.07-.576-.245-.047-.21.07-.397.353-.584s.552-.316.799-.397c1.646-.421 2.963-1.064 3.974-1.94s1.692-1.834 2.069-2.874.458-2.032.246-2.967c-.199-.865-.623-1.577-1.281-2.138s-1.61-.981-2.845-1.285c-1.234-.292-2.857-.479-4.843-.561-.494-.152-.859-.339-1.082-.549s-.388-.491-.458-.829c-.071-.316-.106-.748-.094-1.274a17.94 17.94 0 0 1 .105-1.694l.165-1.729.118-1.296c.047-.444.164-.795.364-1.075.2-.269.482-.503.823-.666l1.587-.736 1.881-.783 1.916-.736 1.669-.596c.177-.058.33-.035.447.082s.165.269.141.467c-.011.246-.058.514-.141.806l-.2.853c-.082.398-.223.736-.435 1.017s-.493.479-.858.607l-1.446.467-1.693.526-1.54.467-1.022.363c-.153.058-.294.257-.424.595a5.39 5.39 0 0 0-.282 1.075c-.059.374-.082.643-.07.806s.07.281.152.363.224.116.388.128l3.704.245c1.116.129 2.104.316 2.986.549 1.504.374 2.692.97 3.55 1.788.858.806 1.446 1.881 1.74 3.201.294 1.273.176 2.558-.329 3.843-.518 1.286-1.329 2.442-2.446 3.459a13.17 13.17 0 0 1-1.704 1.25c-.659.408-1.352.782-2.105 1.098-.74.327-1.54.584-2.386.771l.012.011zm19.491-5.736c-.588.187-1.152.129-1.716-.152s-.941-.724-1.117-1.296c-.2-.62-.153-1.204.141-1.753s.729-.911 1.317-1.098c.599-.187 1.175-.152 1.728.129s.917.736 1.117 1.355a2.16 2.16 0 0 1-.141 1.705c-.283.55-.717.923-1.329 1.122v-.012zm20.397-8.364c-.13.058-.388.151-.788.303l-1.375.514-1.611.585-1.517.584-1.692.736-2.128.934-1.869.818-1.023.444c-.059.023-.212.012-.459-.035-.235-.047-.376-.129-.423-.245-.059-.129-.059-.246-.023-.328l.129-.315 2.939-7.746c.623-1.623.976-3.236 1.081-4.848.094-1.612-.152-3.154-.775-4.614-.447-1.052-1.106-1.776-1.975-2.162s-1.764-.385-2.681 0a4.66 4.66 0 0 0-2.069 1.671c-.529.771-.882 1.589-1.046 2.465-.035.163-.094.327-.177.491s-.199.268-.352.338c-.106.047-.247 0-.423-.128-.165-.129-.306-.327-.424-.584-.117-.281-.117-.736 0-1.355s.377-1.297.753-2.033.893-1.449 1.552-2.126a7.09 7.09 0 0 1 2.386-1.601c1.082-.456 2.116-.607 3.092-.467s1.834.525 2.586 1.168 1.34 1.472 1.775 2.512c.247.584.4 1.262.459 2.044a11.43 11.43 0 0 1-.059 2.372c-.094.806-.259 1.565-.494 2.29-.141.467-.364 1.074-.67 1.834l-.976 2.395-.999 2.395-.764 1.857c-.188.479-.282.748-.259.795.036.081.212.093.541 0l1.364-.456 1.587-.619 1.728-.76 1.634-.794c.564-.28 1.011-.549 1.317-.771a2.11 2.11 0 0 0 .693-.853c.153-.339.259-.771.306-1.308.035-.164.094-.363.165-.596.082-.234.211-.386.376-.467.129-.059.235-.036.329.058s.141.199.165.315c.047.281.082.678.105 1.169l.118 1.565c.047.549.129 1.052.223 1.519.083.315.059.561-.058.724s-.236.269-.341.316h.047zm12.92-6.227c-1.106.619-2.234.864-3.374.747s-2.258-.502-3.327-1.144c-1.082-.643-2.069-1.472-2.975-2.465a16.98 16.98 0 0 1-2.304-3.178c-.658-1.157-1.175-2.407-1.575-3.739s-.6-2.64-.588-3.925c0-1.285.27-2.477.811-3.563s1.399-1.963 2.587-2.617c1.105-.619 2.233-.864 3.374-.748s2.245.503 3.315 1.157 2.057 1.472 2.95 2.453a16.36 16.36 0 0 1 2.281 3.131c.647 1.145 1.164 2.372 1.575 3.704.412 1.32.612 2.64.624 3.948 0 1.309-.247 2.512-.765 3.599s-1.387 1.974-2.598 2.64h-.011zm-.071-1.285c.764-.421 1.14-1.169 1.152-2.22 0-1.063-.247-2.301-.752-3.715-.518-1.414-1.188-2.862-2.022-4.358-.635-1.121-1.329-2.173-2.105-3.166s-1.563-1.834-2.386-2.523-1.622-1.168-2.41-1.414-1.493-.198-2.128.164c-.764.42-1.14 1.145-1.152 2.185s.247 2.254.764 3.656 1.199 2.839 2.034 4.334c.635 1.122 1.34 2.185 2.116 3.201.788 1.017 1.575 1.87 2.386 2.571s1.599 1.18 2.375 1.448 1.481.222 2.14-.14l-.012-.023zm22.407-13.716l-.694.479-1.222.806-1.435.935-1.34.911-1.481 1.098-1.857 1.391-1.646 1.215-.894.654c-.058.047-.211.058-.458.07-.247 0-.4-.047-.47-.14-.083-.117-.118-.222-.094-.316.011-.093.035-.21.058-.338l1.094-8.213c.235-1.718.211-3.377-.059-4.965s-.87-3.038-1.799-4.323c-.67-.935-1.481-1.484-2.422-1.659s-1.81.023-2.609.596c-.741.537-1.294 1.227-1.634 2.091a6.43 6.43 0 0 0-.459 2.64 1.97 1.97 0 0 1-.059.514c-.047.176-.141.316-.27.409-.094.07-.235.059-.435-.035s-.376-.245-.541-.479c-.176-.245-.282-.689-.306-1.32s.071-1.343.271-2.15.541-1.612 1.034-2.418a7.06 7.06 0 0 1 1.964-2.091c.952-.678 1.928-1.063 2.903-1.145a5.09 5.09 0 0 1 2.787.549c.881.456 1.645 1.133 2.304 2.045.376.514.67 1.145.917 1.892s.399 1.531.493 2.325c.083.806.106 1.577.047 2.348-.023.479-.105 1.122-.235 1.94l-.411 2.558-.435 2.559-.329 1.986c-.071.514-.094.794-.071.829.059.082.224.035.529-.117l1.223-.747 1.411-.958 1.516-1.122 1.411-1.133c.494-.409.858-.76 1.105-1.052s.411-.619.482-.993c.07-.362.07-.817 0-1.343l.023-.619c.024-.246.118-.421.271-.538.117-.081.223-.093.329-.023s.188.152.235.269a13.5 13.5 0 0 1 .376 1.121l.47 1.496c.177.525.365 1.004.565 1.436.153.293.188.538.106.725s-.177.315-.271.385l.012-.035zm9.875-8.318c-.082.082-.223.14-.4.187s-.317.012-.435-.105c-.094-.105-.117-.234-.058-.397a1.45 1.45 0 0 1 .246-.432c.659-.806 1.011-1.449 1.058-1.928.047-.467-.129-.923-.54-1.379l-1.893-2.079c-.082-.082-.2-.094-.353-.012-.153.07-.247.129-.282.164l-1.928 1.811-1.928 1.88-2.222 2.127c-.07.058-.164.105-.282.105s-.211-.023-.27-.082c-.035-.035-.047-.105-.035-.198l-.047-.912-.012-.514c0-.152-.036-.35-.071-.596l-2.386-16.016c-.047-.304-.071-.62-.059-.947s.106-.56.259-.712l.411-.374c.106-.094.2-.07.282.07s.13.245.141.292l2.34 16.017c.023.105.07.187.129.245s.129.047.212-.023l4.208-3.797a.42.42 0 0 0 .141-.245c.024-.094 0-.176-.035-.222l-3.362-3.68c-.223-.246-.353-.409-.4-.514s-.035-.246.047-.444c.177-.468.423-.912.764-1.309l.741-.806c.247-.222.529-.199.846.07a14.24 14.24 0 0 1 1.282 1.274l2.845 3.119c.106.117.211.14.294.058l.552-.455.482-.433.717-.677.753-.748c.188-.175.341-.199.446-.082.13.14.247.339.353.596s.188.502.212.724c.035.222.023.351 0 .386l-.623.537-.682.585-.4.385a4.17 4.17 0 0 0-.306.351c-.058.081-.105.175-.152.28s-.059.163-.047.187l1.916 2.103c.458.502.893.747 1.316.736.412-.012 1.047-.234 1.905-.655.141-.093.294-.151.47-.186s.318 0 .435.128c.059.07.082.175.059.327a.6.6 0 0 1-.223.386l-1.223 1.028-1.023.806-1.081.923-1.07 1.016-.905.935a17.68 17.68 0 0 1-1.141 1.098l.012.023zM106.44 171.548c-.094.128-.223.245-.399.338s-.33.094-.459 0a.51.51 0 0 1-.247-.479c0-.198.059-.397.153-.584.259-.712.341-1.25.235-1.589s-.47-.595-1.105-.759l-1.987-.619c-.152-.07-.258-.07-.352-.024-.083.059-.2.187-.353.409l-3.221 4.743c-.106.152-.141.281-.129.398a1.3 1.3 0 0 0 .165.397l.811 1.215c.2.269.423.491.647.677.388.328.752.444 1.093.351s.729-.339 1.164-.759c.165-.141.329-.269.506-.351.176-.093.352-.082.529.047.129.093.188.233.164.42-.023.199-.07.363-.164.491-.294.444-.553.783-.776 1.04l-.623.736-.671.911-.54.865-.388.747c-.118.257-.329.596-.635 1.04a1.43 1.43 0 0 1-.388.362c-.176.105-.329.117-.494 0-.176-.117-.247-.28-.212-.479a4.55 4.55 0 0 1 .141-.572 7.02 7.02 0 0 0 .364-1.098c.082-.362.094-.748.012-1.169-.07-.409-.27-.899-.611-1.437l-6.419-9.86c-.388-.607-.741-1.016-1.046-1.203s-.458-.327-.458-.432l-.012-.97-.023-1.238-.024-.806c-.047-.316-.047-.561-.012-.725s.071-.292.118-.35c.059-.082.153-.129.282-.129s.282.035.47.094l14.859 3.54c.611.151 1.223.222 1.846.233.623 0 1.199-.268 1.728-.806.129-.14.282-.257.482-.35a.52.52 0 0 1 .552.035c.13.093.188.222.153.409a1.37 1.37 0 0 1-.176.479c-.412.619-.823 1.156-1.211 1.635l-1.164 1.566-.705 1.109-.694 1.192a14.22 14.22 0 0 1-.811 1.297l.035.012zm-8.546-.117l2.48-3.657c.118-.175.165-.292.13-.339-.024-.046-.142-.105-.318-.163-.306-.117-.752-.234-1.317-.374l-1.822-.409-1.858-.432-1.458-.374c-.247-.07-.388-.07-.423-.024-.035.059.012.199.153.409l1.799 2.676 1.975 2.839c.106.128.2.186.294.175s.2-.129.341-.327h.023zm28.614-23.693c-.212.234-.447.421-.706.538-.258.128-.54.21-.846.257s-.67.058-1.082.047l-15.224-.585c-.282 0-.529.012-.752.059-.212.035-.353.093-.4.152-.058.058-.035.152.059.292s.247.304.47.49l2.481 2.185 2.445 2.08 2.01 1.67c.529.409 1.011.584 1.458.526.447-.047.976-.304 1.611-.771.141-.117.329-.222.54-.292a.5.5 0 0 1 .553.093c.118.105.153.246.094.433a1.15 1.15 0 0 1-.247.443l-1.211 1.215c-.294.246-.646.596-1.07 1.075l-1.14 1.379c-.294.409-.67.864-1.117 1.355a1.18 1.18 0 0 1-.399.257c-.177.07-.318.058-.447-.047-.153-.14-.212-.303-.165-.502.047-.187.13-.374.259-.549.329-.526.529-1.017.6-1.496s-.142-.958-.612-1.46l-.999-1.005-1.646-1.577-1.963-1.869-1.975-1.846-1.634-1.483c-.259-.234-.6-.363-1.035-.398s-.905.012-1.399.141-.917.338-1.281.619a2.36 2.36 0 0 1-.635.257c-.2.046-.364.023-.482-.082s-.141-.257-.082-.444c.07-.187.153-.35.258-.467l.8-.853.999-1.052 1.129-1.18 1.081-1.168a.83.83 0 0 1 .506-.268 2.87 2.87 0 0 1 .552-.012l14.566.362.364.035c.153 0 .259-.012.306-.07.059-.058.059-.129.024-.199a1.21 1.21 0 0 0-.247-.268l-5.961-5.117c-.587-.491-1.152-.771-1.669-.83s-1.14.175-1.869.701c-.188.117-.376.21-.6.269-.211.058-.388.023-.529-.094-.117-.105-.141-.257-.082-.444.07-.186.141-.338.235-.432l.941-.981.681-.643c.224-.21.494-.479.788-.817l.682-.807.494-.654.74-.888c.106-.116.259-.21.435-.28.188-.07.329-.058.423.035.142.129.189.292.153.514a1.94 1.94 0 0 1-.211.619c-.424.654-.565 1.227-.447 1.706s.458.97 1.011 1.46l9.675 8.914c.4.35.658.689.788 1.005s.117.56-.047.736v.011zm5.76-6.507c-.106.082-.247.152-.447.21s-.34.024-.446-.093c-.141-.164-.165-.339-.083-.526a1.67 1.67 0 0 1 .353-.514c.423-.525.717-1.028.882-1.495.164-.479.023-.97-.4-1.472l-7.23-8.692c-.458-.549-.929-.876-1.411-.981s-1.081.035-1.798.42a1.64 1.64 0 0 1-.612.164c-.211.023-.387-.059-.517-.222-.106-.117-.117-.269-.023-.444.082-.175.176-.304.282-.386l1.128-.876 1.152-.818 1.106-.829 1.034-.935 1.058-1.004 1.07-.935c.117-.105.282-.175.47-.21s.341 0 .447.128a.53.53 0 0 1 .094.514 1.85 1.85 0 0 1-.317.596c-.494.608-.729 1.168-.718 1.671.024.502.259 1.028.718 1.577l2.515 3.026c.141.163.318.152.541-.035l1.611-1.274 1.457-1.145 1.517-1.296 1.669-1.426c.141-.117.141-.268-.012-.455l-2.468-2.968c-.47-.572-.964-.911-1.47-1.016s-1.105.023-1.798.397a1.7 1.7 0 0 1-.635.164c-.224.011-.4-.047-.518-.187-.105-.117-.105-.269-.011-.456.094-.175.2-.315.329-.42l1.14-.877 1.176-.829c.4-.269.752-.549 1.081-.818l1.058-.946 1.035-.97 1.058-.911c.118-.105.282-.175.458-.222.189-.047.33 0 .435.117.118.14.165.315.118.514a1.38 1.38 0 0 1-.282.596c-.506.595-.764 1.145-.753 1.647 0 .514.247 1.04.706 1.589l7.23 8.692c.423.514.881.724 1.387.642s1.046-.292 1.646-.607a1.49 1.49 0 0 1 .588-.222c.211-.035.388.023.517.187.117.14.129.303.023.467a1.55 1.55 0 0 1-.305.385l-1.105.853-1.199.865-1.235.946-1.117.993-1.128 1.051-1.117.97c-.106.082-.247.152-.447.21s-.341.024-.446-.093c-.153-.187-.189-.374-.106-.561a1.7 1.7 0 0 1 .352-.514c.424-.526.729-1.028.882-1.53.165-.491.035-.982-.364-1.472l-3.316-3.984a.24.24 0 0 0-.387-.035l-1.787 1.413-1.599 1.262-1.423 1.215-1.575 1.344c-.141.117-.141.268.012.455l3.315 3.984c.411.491.858.689 1.364.608s1.034-.281 1.622-.585c.176-.116.376-.198.576-.245s.376 0 .506.175c.117.141.129.304.035.479s-.2.316-.329.421l-1.117.864-1.223.877-1.211.911-1.128 1.005-1.082 1.016-1.058.911zm34.61-24.919c-.141.07-.318.117-.518.14s-.34-.046-.411-.186c-.106-.187-.082-.374.035-.561a1.92 1.92 0 0 1 .412-.444c.576-.456.987-.9 1.258-1.32.27-.433.247-.923-.047-1.484l-5.808-10.783c-.258-.491-.494-.759-.67-.794-.188-.036-.517.07-.987.315l-1.693.9c-.424.222-.741.642-.953 1.273-.211.619-.34 1.168-.387 1.647 0 .152-.024.339-.048.538a2.01 2.01 0 0 1-.152.595c-.083.187-.188.328-.33.398-.094.046-.188.07-.293.046a.31.31 0 0 1-.224-.175 1.97 1.97 0 0 1-.188-.596c-.035-.233-.129-.642-.294-1.215-.153-.572-.458-1.39-.905-2.441-.118-.269-.129-.468-.047-.608.082-.128.165-.222.259-.269.117-.058.258-.081.423-.07.164.024.376.035.658.035.294 0 .623-.058.988-.14s.823-.28 1.387-.584l7.865-4.182c.729-.385 1.305-.771 1.716-1.145l1.023-.993.411-.467c.118-.14.224-.234.318-.28.117-.058.235-.07.352 0s.212.129.259.222l.952 1.659.67 1.04.506.853c.035.07.082.245.141.514s0 .444-.188.502c-.177.07-.353.058-.541-.035a3.2 3.2 0 0 1-.623-.432c-.517-.502-1.035-.841-1.575-.993-.529-.152-1.094-.07-1.681.245l-2.152 1.145c-.305.163-.482.409-.529.736s-.012.608.118.841l5.807 10.783c.294.537.694.818 1.235.853.529.035 1.128-.059 1.81-.257.176-.059.364-.094.576-.105.212 0 .364.081.459.268.07.141.058.292-.059.433-.118.152-.247.268-.388.338l-1.305.655-1.423.642-1.387.666-1.293.76-1.27.794-1.281.724h.012zm17.011-8.738c-.13.046-.294.058-.494.046-.2 0-.329-.093-.388-.245a.48.48 0 0 1 .106-.526c.141-.152.305-.268.505-.374.576-.35 1.023-.724 1.329-1.121s.352-.9.117-1.519l-3.891-10.596c-.247-.666-.576-1.133-.999-1.39s-1.035-.327-1.834-.199a1.9 1.9 0 0 1-.635-.047.55.55 0 0 1-.411-.374c-.059-.152-.012-.292.117-.421a1.23 1.23 0 0 1 .388-.269l1.364-.456 1.363-.386 1.317-.409 1.293-.537 1.34-.596 1.317-.526c.153-.058.318-.07.517-.035.2.023.318.117.377.269.058.175.035.35-.083.514-.117.175-.282.327-.493.456-.671.409-1.082.853-1.235 1.332s-.106 1.051.141 1.729l1.352 3.692c.071.199.247.245.517.152l1.952-.666 1.763-.596 1.87-.724 2.045-.783c.176-.058.223-.21.141-.432l-1.328-3.622c-.259-.701-.6-1.18-1.035-1.437-.435-.269-1.046-.339-1.822-.222a1.8 1.8 0 0 1-.658-.058c-.224-.058-.365-.175-.424-.351-.058-.152 0-.292.142-.432a1.38 1.38 0 0 1 .446-.292l1.364-.456 1.387-.397 1.293-.409 1.317-.537 1.305-.573 1.305-.514c.153-.058.317-.07.505-.058s.318.093.365.245a.6.6 0 0 1-.059.526 1.38 1.38 0 0 1-.47.467c-.682.385-1.105.818-1.27 1.308-.164.479-.117 1.063.129 1.729l3.892 10.596c.235.619.587.981 1.093 1.063s1.081.082 1.752-.023a1.66 1.66 0 0 1 .634-.023c.212.035.353.152.435.35.059.175.024.327-.129.456s-.294.21-.411.257l-1.329.444-1.422.409-1.482.479-1.387.572-1.41.619-1.376.538c-.129.046-.294.058-.494.046-.2 0-.329-.093-.388-.245-.082-.222-.047-.409.094-.561a1.86 1.86 0 0 1 .506-.374c.576-.35 1.034-.736 1.34-1.144s.365-.912.141-1.508l-1.787-4.848c-.058-.175-.188-.234-.352-.163l-2.152.736-1.928.654-1.751.678-1.94.748c-.176.058-.223.21-.141.432l1.787 4.849c.223.596.576.934 1.081 1.028.506.082 1.07.082 1.717 0 .211-.047.411-.059.623-.035s.352.14.423.339c.059.175.023.327-.129.467s-.294.233-.447.292l-1.352.444-1.446.42-1.446.468-1.411.572-1.352.596-1.305.514-.011-.023zm36.055-10.538c-1.822.374-3.374.339-4.643-.094s-2.305-1.192-3.08-2.266c-.788-1.087-1.329-2.407-1.658-3.96l-1.328-6.425c-.095-.444-.236-.829-.447-1.168-.2-.339-.482-.608-.823-.806s-.776-.292-1.317-.257a1.65 1.65 0 0 1-.658-.128c-.2-.082-.306-.21-.341-.397-.024-.128.047-.257.212-.386s.305-.21.446-.234l2.152-.339a20.38 20.38 0 0 0 2.033-.315l1.317-.327 1.317-.362 1.446-.339c.153-.035.329-.023.517.012.188.047.294.14.329.304.047.21-.047.409-.282.608s-.458.362-.67.479c-.658.269-1.058.631-1.199 1.098-.153.467-.141 1.075 0 1.822l1.199 5.841c.435 2.103 1.164 3.563 2.187 4.404 1.034.829 2.315 1.087 3.855.783.964-.199 1.776-.561 2.446-1.11.658-.537 1.117-1.297 1.375-2.267.247-.97.224-2.196-.082-3.668l-1.129-5.444c-.153-.724-.317-1.285-.482-1.659-.176-.386-.411-.654-.717-.829-.305-.164-.729-.257-1.281-.292l-.764-.164c-.259-.058-.412-.187-.447-.397-.035-.152.035-.292.2-.409s.341-.187.529-.234l1.222-.21.776-.082c.247-.023.6-.082 1.047-.175l1.034-.245.788-.245 1.164-.28c.152-.035.329-.023.529.012.199.047.317.14.341.292.035.187-.012.35-.165.502a1.58 1.58 0 0 1-.553.374c-.775.35-1.234.771-1.387 1.262s-.164 1.087-.023 1.787l1.046 5.304c.317 1.554.341 3.084.047 4.591s-.917 2.792-1.893 3.867-2.363 1.799-4.161 2.161l-.024.012z"/><path d="M251.533 93.636c-1.011-.012-1.94-.21-2.787-.584s-1.528-.888-2.033-1.565c-.506-.666-.753-1.46-.741-2.36.012-1.005.259-1.881.717-2.605.47-.736 1.094-1.367 1.893-1.893s1.669-1.016 2.645-1.449l.529-.234-.623-.724-.846-.946c-.306-.339-.553-.724-.765-1.168-.199-.444-.305-.935-.294-1.495a3.22 3.22 0 0 1 .776-2.091c.506-.596 1.164-1.051 1.987-1.355s1.669-.456 2.551-.432c1.411.023 2.539.362 3.386 1.005s1.27 1.414 1.281 2.29c-.011.818-.305 1.507-.87 2.056s-1.34 1.121-2.304 1.706l-.529.269 4.279 4.755.529-.514c.729-.701 1.27-1.379 1.634-2.044.353-.654.541-1.121.541-1.379 0-.339-.082-.561-.27-.654s-.4-.175-.635-.234a2.17 2.17 0 0 1-.4-.245c-.129-.105-.2-.21-.2-.315 0-.129.095-.245.271-.339a1.11 1.11 0 0 1 .541-.129c.129 0 .435.023.893.07l1.458.117 1.117.058c.505 0 1.093-.07 1.763-.234s1.234-.234 1.681-.234c.082 0 .176.035.282.105s.153.128.153.187c0 .129-.106.269-.306.409s-.411.222-.623.245c-.54.07-1.022.222-1.469.456s-.8.467-1.07.701a15.24 15.24 0 0 0-.788.701l-1.222 1.168-1.364 1.285-1.175 1.098-.647.584.623.759 1.799 2.15c.529.608 1.164.911 1.904.923.447 0 .882-.058 1.282-.199s.787-.327 1.163-.561l.283-.152a.77.77 0 0 1 .317-.07c.294 0 .435.175.435.526 0 .21-.223.537-.658.981s-.988.853-1.658 1.227a4.15 4.15 0 0 1-2.128.537c-1.222-.023-2.222-.257-2.986-.701s-1.599-1.215-2.48-2.29l-.67-.841-.2.199-1.811 1.822c-.552.537-1.152.946-1.798 1.227s-1.435.409-2.363.397v.023zm1.081-2.372a5.12 5.12 0 0 0 2.105-.444c.682-.304 1.351-.736 1.998-1.273l.247-.234-.435-.561-1.81-2.138-2.046-2.372-.435-.608-.482.269c-.917.491-1.564 1.098-1.951 1.834s-.588 1.46-.6 2.173a3.19 3.19 0 0 0 .435 1.636c.294.514.717.923 1.234 1.227a3.4 3.4 0 0 0 1.717.491h.023zm2.281-9.895l.4-.269c.399-.315.693-.748.881-1.297s.282-1.098.282-1.624c0-.689-.164-1.273-.529-1.752s-.87-.724-1.504-.736c-.529 0-.988.175-1.364.549s-.588.818-.623 1.32c0 .339.047.654.141.911.106.269.282.549.529.864l.999 1.192.788.853v-.012zm40.064 16.017c-1.434-.292-2.751-.783-3.938-1.484s-2.198-1.554-3.021-2.558-1.411-2.115-1.74-3.33c-.341-1.215-.365-2.488-.094-3.809s.799-2.488 1.599-3.505c.787-1.016 1.787-1.846 2.974-2.477s2.516-1.051 3.985-1.238a13.95 13.95 0 0 1 4.55.187 17.36 17.36 0 0 1 1.857.479l1.669.619c.53.234.988.479 1.399.748.247.105.412.21.482.316a.99.99 0 0 1 .142.409c.023.549 0 1.157-.095 1.846l-.246 1.577c-.059.28-.177.456-.365.514s-.364.012-.541-.128-.294-.351-.341-.631c-.141-.899-.376-1.635-.705-2.208s-.799-1.051-1.422-1.425c-.623-.362-1.446-.654-2.493-.865-1.258-.257-2.421-.14-3.515.339s-2.022 1.215-2.774 2.22a8.14 8.14 0 0 0-1.528 3.4c-.318 1.531-.33 2.979-.059 4.346.282 1.367.846 2.523 1.693 3.481s1.986 1.577 3.385 1.858c.729.152 1.47.152 2.222.023a6.56 6.56 0 0 0 2.14-.783c.682-.385 1.234-.935 1.681-1.624.235-.327.541-.491.917-.479.376 0 .529.21.447.596a4.35 4.35 0 0 1-.271.736c-.153.339-.341.689-.564 1.075l-.658 1.122a1.25 1.25 0 0 1-.388.432 1.76 1.76 0 0 1-.553.234c-.658.164-1.516.257-2.586.292a14.94 14.94 0 0 1-3.209-.28l-.036-.023zm12.838 2.454c-.13-.047-.259-.14-.412-.269-.153-.14-.2-.28-.141-.432.071-.199.212-.315.423-.339s.412-.012.623.035c.671.093 1.258.093 1.74 0s.847-.467 1.07-1.098l3.833-10.62c.247-.678.282-1.238.129-1.706s-.588-.9-1.281-1.32c-.189-.117-.341-.269-.459-.432-.118-.175-.153-.351-.07-.549.058-.152.176-.234.364-.245s.353 0 .47.047l1.34.526 1.305.573c.424.199.847.362 1.282.514l1.34.409 1.411.397 1.352.444a1.03 1.03 0 0 1 .423.304c.129.14.164.292.117.444-.058.175-.2.292-.399.339a1.59 1.59 0 0 1-.67.035c-.788-.105-1.388-.023-1.811.245s-.752.748-.999 1.414l-1.34 3.703c-.071.199.035.35.305.444l1.928.724 1.74.666 1.893.631 2.081.701c.176.059.305-.023.388-.245l1.305-3.622c.246-.701.293-1.285.129-1.764s-.588-.923-1.258-1.332a1.62 1.62 0 0 1-.47-.467c-.13-.187-.165-.362-.106-.537.059-.152.176-.234.388-.245.2-.012.376 0 .529.058l1.34.526 1.317.573 1.258.514 1.352.421 1.375.386 1.328.432c.153.058.294.152.435.28s.177.269.13.421c-.059.175-.188.292-.388.374a1.36 1.36 0 0 1-.659.059c-.775-.129-1.375-.07-1.81.199s-.776.736-1.023 1.414l-3.832 10.62c-.224.619-.177 1.121.153 1.507s.787.747 1.363 1.098a1.57 1.57 0 0 1 .494.385c.141.164.176.339.106.538-.059.175-.2.257-.388.257a1.35 1.35 0 0 1-.482-.07l-1.305-.503-1.364-.584-1.446-.584c-.446-.163-.928-.315-1.434-.444l-1.481-.42-1.411-.456c-.129-.047-.258-.14-.411-.269-.153-.14-.2-.28-.141-.432.082-.222.223-.35.435-.374a1.9 1.9 0 0 1 .623.035c.67.094 1.258.094 1.775-.023.505-.117.87-.467 1.081-1.075l1.752-4.86c.059-.175 0-.292-.165-.351l-2.127-.806-1.905-.724-1.787-.596-1.975-.654c-.176-.058-.305.023-.388.245l-1.751 4.86c-.212.596-.165 1.087.164 1.472s.776.747 1.329 1.086a1.76 1.76 0 0 1 .505.374c.141.152.176.327.106.526-.059.175-.2.268-.4.28s-.376 0-.529-.058l-1.316-.514-1.376-.596c-.458-.211-.929-.397-1.411-.561l-1.446-.456-1.422-.397-1.328-.432-.012-.07zm35.385 14.86c-.141-.07-.27-.199-.376-.35-.106-.164-.129-.316-.047-.456.094-.187.247-.292.459-.304.199-.011.399.024.611.094.74.187 1.281.21 1.622.07.329-.14.541-.526.647-1.169l.411-2.032c.047-.152.047-.269-.023-.351s-.212-.175-.447-.304l-5.09-2.675c-.165-.082-.306-.117-.412-.082s-.235.106-.376.199l-1.129.935c-.246.233-.446.467-.611.712-.282.421-.364.795-.235 1.11.129.327.423.678.882 1.075.164.152.294.304.411.467.106.164.118.339.012.526-.071.14-.212.21-.412.21s-.364-.035-.505-.105l-1.117-.654-.799-.538-.988-.56-.917-.444-.787-.304c-.271-.093-.635-.269-1.105-.514a1.2 1.2 0 0 1-.4-.351c-.13-.151-.141-.315-.059-.479.094-.186.247-.268.459-.257.199.012.399.047.587.082a7.15 7.15 0 0 0 1.141.246c.364.046.752 0 1.163-.106s.87-.362 1.376-.759l9.193-7.383c.576-.444.929-.83 1.093-1.157.153-.327.283-.491.377-.502l.964-.117 1.234-.152.811-.117c.306-.07.553-.105.729-.093s.294.047.364.082c.094.047.142.14.153.257 0 .129 0 .28-.047.467l-1.975 15.059c-.082.619-.094 1.226-.035 1.846s.388 1.156.987 1.623c.153.106.283.257.4.433s.118.362.024.549c-.071.14-.212.21-.4.198-.188 0-.353-.058-.494-.128l-1.763-1.016-1.693-.982-1.187-.584-1.27-.549c-.435-.175-.893-.409-1.387-.666h-.024zm-.776-8.458l3.915 2.068c.188.093.306.128.353.093s.094-.14.129-.339c.082-.315.153-.759.235-1.331l.212-1.846.235-1.881.223-1.484c.047-.245.036-.385-.023-.42s-.188.035-.4.198l-2.48 2.068-2.634 2.255c-.117.116-.164.222-.141.303.024.094.141.187.365.304l.011.012zm26.416 25.526c-.564-.397-1.023-.853-1.376-1.367s-.599-1.051-.74-1.635c-.141-.573-.247-1.145-.294-1.706-.035-.409-.035-.969 0-1.659l.141-2.173.247-1.997c.059-.351-.012-.736-.223-1.157-.2-.421-.518-.783-.953-1.098-.106-.082-.282-.117-.505-.117-.235 0-.4.082-.529.257l-2.492 3.458c-.377.514-.506.97-.412 1.344.094.385.411.841.941 1.378.152.14.282.316.376.491.094.187.082.362-.036.537-.094.129-.235.175-.435.152a.96.96 0 0 1-.458-.152l-.882-.654-.846-.678-.858-.654-.859-.619-1.222-.829-1.211-.772-1.223-.829c-.129-.093-.235-.234-.317-.421s-.082-.338 0-.443c.129-.176.294-.246.529-.211.223.035.423.094.588.175.658.316 1.234.479 1.716.514s.917-.221 1.305-.759l6.666-9.229c.399-.561.588-1.075.552-1.542s-.341-.982-.881-1.531c-.165-.187-.283-.373-.341-.584s-.036-.385.07-.537c.094-.129.235-.175.435-.152s.353.082.482.175l1.187.911.906.795c.294.257.646.526 1.058.829.517.374 1.14.771 1.869 1.192s1.481.911 2.257 1.472c1.082.771 1.975 1.589 2.692 2.43s1.14 1.729 1.27 2.64-.129 1.811-.788 2.722c-.435.643-.964 1.098-1.587 1.379-.635.28-1.258.432-1.893.432a6.41 6.41 0 0 1-1.751-.222c-.259-.093-.423 0-.47.245-.142.655-.247 1.391-.33 2.232a21.97 21.97 0 0 0-.105 2.465l.082 2.138c.047.432.176.899.388 1.402s.435.958.682 1.366.446.678.611.83c.094.093.188.222.294.374s.094.315-.035.49-.365.222-.706.164c-.341-.07-.752-.21-1.211-.444s-.917-.502-1.363-.829l-.012.011zm-2.081-13.61c1.105.783 2.163 1.203 3.186 1.25s1.928-.514 2.727-1.67c.494-.69.729-1.367.682-2.033a4.05 4.05 0 0 0-.611-1.881c-.365-.584-.835-1.087-1.423-1.507-.388-.281-.74-.432-1.046-.456s-.599.14-.858.514l-2.974 4.183c-.282.385-.365.701-.247.946a1.62 1.62 0 0 0 .564.642v.012zm8.053 17.933c-.094-.094-.176-.222-.223-.397s-.036-.316.058-.409a.51.51 0 0 1 .471-.164c.188.024.388.105.599.234.576.35 1.105.584 1.599.689.482.105.952-.082 1.411-.572l7.688-8.248c.494-.526.764-1.028.823-1.519s-.176-1.075-.694-1.776a1.64 1.64 0 0 1-.235-.596c-.035-.21.012-.397.165-.549.106-.116.258-.14.447-.07a1.48 1.48 0 0 1 .435.234l1.011.993.975 1.028.988.993 1.023.865 1.128.899 1.07.935c.118.105.212.257.27.444s.047.338-.07.455c-.13.14-.294.187-.517.14a2.08 2.08 0 0 1-.612-.21c-.635-.409-1.211-.549-1.716-.444-.506.117-1.023.456-1.54 1.017l-7.524 8.072c-.435.468-.647.841-.647 1.134s.165.584.506.899l2.492 2.29c.435.397.858.666 1.27.794.423.14.905.152 1.458.047s1.222-.304 1.998-.596c.106-.047.259-.07.447-.105.188-.023.353.023.482.152s.176.257.117.409a1.16 1.16 0 0 1-.258.385c-.13.141-.353.304-.67.514l-1.047.655-1.069.642-.741.444c-.094.059-.235.082-.423.07s-.329-.058-.435-.152l-1.74-1.635-1.905-1.811-1.904-1.846-1.799-1.717-1.493-1.215-1.634-1.402h-.035zm15.295 14.545c-.106-.117-.177-.281-.224-.468s0-.338.118-.444c.164-.14.352-.163.564-.081a3.09 3.09 0 0 1 .564.28c.518.397 1.011.678 1.482.83s.952.035 1.434-.386l8.605-7.302c.553-.467.882-.934.988-1.413.117-.479-.036-1.063-.459-1.753a1.6 1.6 0 0 1-.164-.619c-.012-.222.058-.385.199-.502.118-.105.271-.117.459-.047a.99.99 0 0 1 .435.292l.799.993.706.97.705.911 1.881 2.161 1.869 2.115 1.599 1.799 1.046 1.18c.071.082.13.199.188.339s.024.268-.105.374c-.647.584-1.176 1.133-1.564 1.635s-.717.865-.976 1.098c-.082.07-.2.117-.341.152s-.247.024-.294-.035c-.07-.082-.117-.21-.141-.409-.023-.187.024-.397.141-.642.377-.736.635-1.39.776-1.94s-.047-1.121-.54-1.705l-2.128-2.477c-.153-.187-.376-.315-.647-.42-.282-.094-.541-.036-.811.186l-3.797 3.225c-.141.117-.259.28-.341.49s-.071.374.035.491l1.764 2.056c.282.327.599.479.952.468.364 0 .811-.129 1.363-.339.177-.047.341-.059.506-.059a.46.46 0 0 1 .364.152c.083.105.118.222.083.374s-.13.269-.282.374l-.988.678-.882.689c-.305.257-.576.514-.799.759l-.835.841a1.04 1.04 0 0 1-.446.304c-.177.058-.306.047-.388-.058-.141-.164-.153-.351-.047-.584l.258-.526c.318-.444.47-.818.447-1.133a1.58 1.58 0 0 0-.294-.83 7.48 7.48 0 0 0-.788-1.028l-.87-1.016c-.211-.246-.376-.386-.517-.421s-.329.047-.576.245l-3.491 2.968c-.471.397-.717.712-.753.958s.118.561.459.969l2.28 2.652c.541.62 1.211.993 2.011 1.11s1.54.07 2.222-.163l.435-.082c.176-.023.305.023.411.14s.118.245.035.386a1.46 1.46 0 0 1-.294.362 9.31 9.31 0 0 1-1.504.934l-1.693.783c-.141.082-.306.105-.506.059a.84.84 0 0 1-.47-.281l-1.54-1.822-1.646-1.975-1.646-1.997-1.563-1.881-.941-1.005-.975-.981-.917-1.005v.047zm16.564 21.484c-.565-.829-.964-1.589-1.188-2.278l-.564-1.928c-.071-.21-.094-.35-.059-.444l.106-.268c.141-.257.388-.561.705-.912.329-.35.694-.689 1.105-1.028l1.176-.888c.153-.105.341-.187.564-.268s.4-.024.517.152c.153.222.153.444.024.677l-.364.608c-.294.514-.588 1.121-.906 1.834a6.75 6.75 0 0 0-.552 2.173c-.059.747.141 1.437.588 2.103.646.946 1.34 1.46 2.092 1.542s1.411-.059 1.987-.444c.482-.327.835-.736 1.034-1.25.2-.503.283-1.168.236-1.998l-.118-3.516c-.059-1.18.071-2.243.376-3.201.318-.958.952-1.764 1.928-2.419.905-.607 1.858-.841 2.845-.712s1.928.525 2.822 1.168a9.19 9.19 0 0 1 2.233 2.29c.506.747.905 1.437 1.176 2.091l.611 1.46c.059.187.071.351.047.491-.023.152-.117.304-.258.467-.318.339-.706.666-1.153.993l-1.457 1.052c-.106.07-.282.116-.518.128s-.387-.047-.482-.175-.105-.316-.07-.561c.047-.234.129-.432.259-.584.599-.631.975-1.262 1.128-1.881.153-.631.176-1.203.059-1.717-.106-.514-.282-.935-.506-1.274-.505-.747-1.105-1.203-1.798-1.355a2.25 2.25 0 0 0-1.858.316c-.599.397-.952.887-1.081 1.472s-.153 1.296-.083 2.138l.224 3.878c.023 1.04-.141 1.998-.506 2.874-.364.888-.975 1.612-1.834 2.196-.634.433-1.457.643-2.457.643s-2.033-.292-3.115-.853c-1.082-.572-2.057-1.507-2.939-2.792h.024zm-46.178 112.468c-6.548 9.381-14.977 15.141-26.439 15.141-25.804 0-43.309-20.398-43.309-46.917s15.236-46.918 39.912-46.918c19.009 0 32.987 13.634 33.986 32.898h-22.536l11.203-12.138c-2.645-10.386-9.698-18.014-20.138-18.014-20.643 0-27.567 21.017-27.567 44.16s8.817 44.289 30.083 44.289c9.44 0 16.364-4.498 21.278-12.512h3.527v.011zM148.55 205.777h74.521v13.517l-11.074-11.005h-19.385v85.949l5.537 5.503h-24.676l5.537-5.503v-85.949h-19.386l-11.074 11.005v-13.517z"/></g><path d="M254.389 184.947V339.461" stroke="#fbfcfb" stroke-width="3.18" stroke-linecap="round" stroke-linejoin="round"/><g fill="#fbfcfb"><path d="M92.369 194.352c-1.305-.047-4.044 4.136-4.738 5.245-3.75 5.503-2.88 10.304-2.633 13.903-.823 4.474-1.528 9.381-1.646 13.925-1.669-2.967-2.046-8.984-6.195-15.993-.153-.234-.306-.503-.552-.643-1.035-.432-1.282 1.04-1.552 1.718-.894 2.546-1.105 5.525.212 7.967 2.175 4.229 3.915 4.404 7.289 7.827l.764 1.169c-.094 11.601 1.705 24.416 3.797 35.83-1.975-1.951-4.209-3.656-6.137-5.654-.4-.397-.705-.935-1.187-1.227-.905-.28-1.129.666-1.152 1.647-.023.643.047 1.297.047 1.624 0 .07 0 .141.023.211.141 1.729.799 3.388 1.787 4.825 1.011 1.483 2.798 2.663 4.679 3.656.694.374 1.411.724 2.104 1.052l1.14.537.376 1.776.764 3.411c4.373 18.914 9.605 30.071 13.437 46.824-3.174-5.211-7.536-10.234-11.744-14.65-3.045-6.239-.894-9.451-2.551-13.786-.987-2.757-2.669-4.345-6.101-8.645-.588-.666-1.046-1.472-1.681-2.091-.623-.362-1.129.164-1.105.806-.165 1.916-.4 3.879.035 5.783 1.434 7.021 5.619 8.236 8.217 12.267.094.163.212.327.412.362.118 1.087.364 2.138.705 3.166-4.15-4.229-8.476-8.306-12.65-12.5-.023-1.414-1.646-3.645-2.316-4.498-1.505-1.753-3.421-3.014-5.455-4.077-2.01-2.606-3.903-5.573-5.514-8.529.353-3.341 3.303-4.311 2.469-9.416-.27-1.694-.964-3.283-1.54-4.895-.553-1.472-.835-3.213-1.846-2.991-.658.164-.882.9-1.105 1.461-.788 2.091-.764 4.439-.247 6.589.541 1.927 1.646 3.621 2.61 5.35-.435.771-.846 1.566-1.14 2.407-2.339-4.486-4.855-10.351-6.184-15.234.141-4.93-5.49-9.405-10.051-14.276-.364-.339-.694-.982-1.27-.806-.294.105-.411.397-.411.677.388 3.236 3.386 8.272 4.644 9.638 2.081 2.208 4.162 3.096 5.525 4.802.223.21.4.607.647.864 1.999 6.905 6.101 16.017 11.239 23.272-3.609-1.682-.247.024-8.711-4.1-1.117-.55-1.493.572-.964 1.437 1.575 3.095 4.35 5.841 7.9 6.437 2.281.432 4.115.409 5.102.455 1.74 2.033 3.586 3.984 5.478 5.888 0 .024.012.059.023.082 0 0 0 .023.023.035.071.129.188.222.317.257 5.537 5.538 13.39 12.641 19.915 20.375-1.223-.363-2.492-.515-3.774-.456-1.54-1.285-2.927-2.792-4.479-4.031-3.55-2.838-6.983-2.768-11.298-2.663-.317 0-.694-.035-.929.222-.176.187-.188.479-.059.701 1.622 1.635 5.431 3.201 7.347 4.369 7.43 4.311 9.346 1.11 14.601 3.587 4.69 5.806 6.277 9.334 6.677 9.965 1.223 5.981 2.069 12.021 2.575 18.096 0 0 .023 0 .023.012a8.65 8.65 0 0 1 1.14.701s.012 0 .024.011c0-.058 0-.105-.012-.163a150.64 150.64 0 0 0-.846-8.283c.294-.818.646-1.53 1.034-2.173 1.905-3.143 4.679-4.673 5.643-9.977 1.011-3.47.071-7.045-.211-10.549-.482-5-.224-4.592-.412-5.012a.58.58 0 0 0-.776-.222c-1.14.888-4.244 9.72-4.773 13.225-.117.712-.176 1.425-.176 2.137-.047 2.921.611 5.853.447 8.739-.341.456-.647.946-.917 1.437-.047.082-.094.175-.141.257-1.752-11.951-4.797-22.15-8.241-32.992.294-1.296.341-2.652.788-3.902a20.76 20.76 0 0 1 .447-1.133c.223-.537.459-1.051.682-1.542.799-1.776 1.493-3.4 1.469-5.794 0-4.381-.94-7.898-1.152-10.047 0-.339-.258-.643-.599-.643-.705 0-1.093 1.542-1.387 2.068-1.199 2.558-1.505 4.871-1.422 6.904.059 1.694.388 3.201.682 4.521.2.923.4 1.753.47 2.5.094 1.274-.106 1.391.188 1.659-.423 1.005-.729 2.08-.905 3.05-2.081-6.519-4.303-13.471-5.925-20.059-.059-.222-.106-.456-.165-.69a7.17 7.17 0 0 0 .552-.958c.694-1.425.917-3.002.482-4.86 0 0 .012-.023.023-.023-.035-.187-.082-.491-.117-.701-.247-.269-.682-2.862-3.715-6.425l-1.434-8.167c.035-.046.071-.105.094-.175.047-2.021.999-2.033 2.645-8.692 1.129-4.147-.059-6.974-.882-10.339-.188-.561-.165-1.25-.576-1.705-.799-.62-1.305.549-1.528 1.168-2.539 6.297.411 9.72 1.081 13.657-.599 1.962-1.011 2.722-1.27 3.353-1.987-13.026-3.198-25.562-1.234-38.296.023-.023.047-.035.059-.058.835-1.904 2.492-3.19 3.691-4.849 1.246-1.682 2.281-3.551 2.692-5.619.741-3.154.893-6.39.999-9.603.012-.806.094-1.624.118-2.43 0-.35-.27-.689-.635-.713l.012.059z"/><path d="M113.259 270.207c-.024.117 0 .21.059.28l-2.199 3.937c-.658.222-1.081.947-1.363 1.577-.118-.595-.188-1.343-.753-1.682-.729-.385-1.305.397-1.363 1.063-.13.783.117 1.589.834 3.937l.2.608-1.81 5.362c-.13-3.107-2.187-2.161-2.422-.467-.212 1.554.776 4.065.999 4.766.047.152.071.327.2.433l-1.364 7.068c-.058-.725-.164-1.449-.352-2.15-.294-1.449-1.705-2.57-2.634-.888-.952 2.138.388 3.47 2.152 6.157a.34.34 0 0 0 .223.152c.012.081.059.152.118.198-.765 5.772-1.317 12.349-1.423 18.295 0 .491.694.479.705.047.13-6.005.577-12.033 1.376-17.98a.32.32 0 0 0 .294.129c1.234-.058 2.798-.304 3.585-1.355.529-.935-.435-1.577-1.305-1.437 1.153-.923 2.387-2.045 2.693-3.517.223-1.694-2.622-2.628-4.597 1.671a111.64 111.64 0 0 1 1.223-6.168c1.363-.923 2.656-1.893 3.632-3.19.612-.724 1.258-2.465-.188-2.628-.929 0-1.881 1.215-2.457 1.916a72.35 72.35 0 0 1 1.963-6.029c.083-.023.165-.046.318-.163 1.387-.152 2.904-.281 4.02-1.203.482-.351.87-1.227.2-1.589-.447-.222-.94-.012-1.375.152-.482.186-.952.397-1.411.654.682-.771 1.658-2.103 1.423-3.108-.095-.327-.294-.537-.553-.619 1.129-2.196 1.998-3.516 2.939-5.047.741-.631 1.493-1.624 1.857-2.301.635-1.262-.282-2.43-1.481-1.309-1.187 1.192-1.563 2.898-1.951 4.463l-.012-.035zM61.85 226.339a.35.35 0 0 1 .035.28l3.374 3.003c.705 0 1.34.537 1.81 1.051-.082-.596-.259-1.332.153-1.834.564-.608 1.375-.047 1.634.572.376.701.412 1.542.494 3.996l.012.642 3.456 4.486c-.894-2.979 1.364-2.745 2.14-1.226.705 1.402.588 4.1.611 4.825 0 .163.035.327-.047.479l3.597 6.238a11.11 11.11 0 0 1-.364-2.149c-.188-1.472.764-2.98 2.21-1.683 1.599 1.718.764 3.412-.023 6.507a.33.33 0 0 1-.165.211c.012.082 0 .152-.047.222 2.61 5.21 5.278 11.25 7.324 16.846.165.467-.506.678-.647.269a164 164 0 0 0-7.171-16.566c-.035.093-.106.187-.235.222-1.187.339-2.739.619-3.832-.129-.799-.712-.106-1.635.764-1.787-1.387-.503-2.927-1.168-3.691-2.454-.764-1.53 1.611-3.341 4.89.094a108.59 108.59 0 0 0-3.162-5.432c-1.599-.433-3.127-.935-4.479-1.846-.811-.491-1.999-1.928-.682-2.547.882-.292 2.175.537 2.951 1.016a72.97 72.97 0 0 0-3.832-5.07c-.082 0-.176.012-.353-.058-1.364.303-2.833.666-4.197.151-.576-.175-1.223-.876-.705-1.436.353-.351.893-.316 1.352-.293a11.84 11.84 0 0 1 1.552.164c-.893-.514-2.245-1.449-2.363-2.488a.88.88 0 0 1 .317-.771c-1.787-1.718-3.045-2.676-4.42-3.832a9.25 9.25 0 0 1-2.504-1.577c-1.011-.993-.529-2.395.964-1.718 1.505.736 2.422 2.232 3.303 3.587l-.024.035zm-12.261 65.072c.094.035.165.023.235 0l2.88 2.278c.094.561.623.993 1.093 1.297-.494.023-1.105-.024-1.458.374-.411.537.153 1.098.682 1.226.623.211 1.305.117 3.292-.152l.517-.07 4.091 2.15c-2.528-.304-2.034 1.46-.705 1.869 1.223.374 3.386-.082 3.974-.163.129-.024.27-.012.376-.094l5.525 2.021c-.588-.047-1.187-.058-1.787 0-1.211.047-2.292 1.017-1.058 1.986 1.599 1.04 2.857.152 5.255-.899.071-.035.118-.094.153-.164.071 0 .129-.023.176-.07 4.561 1.367 9.793 2.687 14.589 3.551.4.071.482-.49.129-.56-4.832-.9-9.628-2.045-14.331-3.47.071-.035.129-.105.141-.222.118-.993.129-2.266-.623-3.037-.682-.538-1.328.14-1.34.852-.588-1.039-1.34-2.173-2.481-2.605-1.34-.397-2.469 1.741.741 3.879a91.66 91.66 0 0 1-4.82-1.788c-.564-1.215-1.176-2.371-2.093-3.318-.505-.584-1.822-1.331-2.151-.198-.117.736.729 1.659 1.223 2.208-1.575-.724-3.115-1.507-4.608-2.372 0-.058-.012-.14-.094-.28.059-1.122.153-2.348-.447-3.365-.223-.432-.882-.852-1.258-.373-.235.327-.141.747-.059 1.121.094.409.2.818.341 1.215-.541-.643-1.481-1.6-2.328-1.542-.282.023-.47.163-.576.362-1.622-1.192-2.575-2.056-3.691-3.002-.411-.678-1.117-1.402-1.611-1.788-.941-.677-1.998-.093-1.258 1.005.799 1.098 2.128 1.635 3.339 2.15l.024-.012zm370.042-95.891c1.305-.047 4.044 4.136 4.738 5.246 3.75 5.502 2.88 10.304 2.633 13.902.823 4.474 1.529 9.381 1.646 13.926 1.669-2.968 2.046-8.984 6.195-15.994.153-.234.306-.502.553-.642 1.035-.433 1.281 1.039 1.552 1.717.893 2.547 1.105 5.526-.212 7.967-2.175 4.23-3.915 4.405-7.289 7.828l-.764 1.168c.094 11.601-1.704 24.417-3.797 35.831 1.975-1.951 4.209-3.657 6.137-5.655.399-.397.705-.934 1.187-1.227.905-.28 1.129.666 1.152 1.648.024.642-.047 1.296-.047 1.624 0 .07 0 .14-.023.21-.141 1.729-.8 3.388-1.787 4.825-1.011 1.483-2.798 2.663-4.679 3.656-.694.374-1.411.725-2.104 1.052l-1.141.537-.376 1.776-.764 3.411c-4.373 18.914-9.605 30.071-13.437 46.824 3.174-5.21 7.535-10.234 11.744-14.65 3.045-6.238.894-9.451 2.551-13.785.988-2.757 2.669-4.346 6.101-8.645.588-.666 1.047-1.472 1.682-2.092.623-.362 1.128.164 1.105.807.164 1.915.399 3.878-.036 5.782-1.434 7.022-5.619 8.237-8.217 12.267-.094.164-.212.327-.411.362a15.26 15.26 0 0 1-.706 3.166c4.15-4.229 8.476-8.306 12.65-12.5.023-1.414 1.645-3.645 2.315-4.498 1.505-1.752 3.421-3.014 5.455-4.077 2.011-2.605 3.903-5.573 5.514-8.528-.353-3.342-3.304-4.311-2.469-9.417.27-1.694.964-3.282 1.54-4.895.553-1.472.835-3.212 1.846-2.99.658.163.881.899 1.105 1.46.788 2.091.764 4.439.247 6.589-.541 1.928-1.646 3.622-2.61 5.351.435.771.846 1.565 1.14 2.406 2.34-4.486 4.855-10.351 6.184-15.234-.141-4.93 5.49-9.404 10.051-14.276.365-.339.694-.981 1.27-.806.294.105.411.397.411.678-.388 3.236-3.385 8.271-4.643 9.638-2.081 2.208-4.162 3.096-5.526 4.801-.223.21-.399.608-.646.865-1.999 6.904-6.102 16.017-11.239 23.271 3.609-1.682.247.024 8.711-4.1 1.117-.549 1.493.572.964 1.437-1.575 3.096-4.349 5.841-7.9 6.437-2.28.432-4.114.409-5.102.456-1.74 2.032-3.585 3.983-5.478 5.888 0 .023-.012.058-.024.081 0 0 0 .024-.023.035-.071.129-.188.222-.318.257-5.537 5.538-13.39 12.641-19.914 20.375 1.222-.362 2.492-.514 3.774-.456 1.54-1.285 2.927-2.792 4.479-4.03 3.55-2.839 6.983-2.769 11.297-2.664.317 0 .694-.035.929.222.176.187.188.479.059.701-1.623 1.636-5.432 3.201-7.348 4.369-7.43 4.311-9.346 1.11-14.601 3.587-4.691 5.806-6.278 9.334-6.677 9.965-1.223 5.982-2.069 12.021-2.575 18.096 0 0-.023 0-.023.012-.4.199-.776.444-1.141.701 0 0-.011 0-.023.012 0-.059 0-.105.012-.164a150.64 150.64 0 0 1 .846-8.283c-.294-.818-.647-1.53-1.035-2.173-1.904-3.142-4.678-4.673-5.642-9.977-1.011-3.469-.071-7.044.211-10.549.482-5 .224-4.591.412-5.012a.58.58 0 0 1 .776-.222c1.14.888 4.243 9.72 4.772 13.225a13.06 13.06 0 0 1 .177 2.138c.047 2.92-.611 5.853-.447 8.738a12.41 12.41 0 0 1 .917 1.437c.047.082.094.176.141.257 1.752-11.951 4.797-22.15 8.241-32.991-.294-1.297-.341-2.652-.788-3.902a20.64 20.64 0 0 0-.446-1.134c-.224-.537-.459-1.051-.682-1.542-.8-1.775-1.493-3.399-1.47-5.794 0-4.381.941-7.898 1.152-10.047 0-.339.259-.643.6-.643.705 0 1.093 1.542 1.387 2.068 1.199 2.559 1.505 4.872 1.423 6.904-.059 1.694-.388 3.202-.682 4.522-.2.923-.4 1.752-.47 2.5-.094 1.273.105 1.39-.189 1.659.424 1.004.729 2.079.906 3.049 2.08-6.519 4.302-13.47 5.925-20.059.058-.222.106-.456.164-.689a7.32 7.32 0 0 1-.552-.958c-.694-1.426-.917-3.003-.482-4.86 0 0-.012-.024-.024-.024.036-.187.083-.49.118-.701.247-.268.682-2.862 3.715-6.425.517-2.711.987-5.433 1.434-8.166a.61.61 0 0 1-.094-.176c-.047-2.021-.999-2.032-2.645-8.691-1.129-4.148.059-6.975.882-10.339.188-.561.164-1.251.576-1.706.799-.619 1.304.549 1.528 1.168 2.539 6.297-.412 9.72-1.082 13.657.6 1.963 1.011 2.722 1.27 3.353 1.987-13.026 3.198-25.562 1.234-38.296-.023-.023-.047-.035-.059-.058-.834-1.904-2.492-3.189-3.691-4.848-1.246-1.683-2.281-3.552-2.692-5.62-.741-3.154-.893-6.39-.999-9.603-.012-.806-.094-1.624-.118-2.43 0-.35.271-.689.635-.712l-.012.058z"/><path d="M398.741 271.375c.023.117 0 .21-.059.281l2.198 3.937c.659.222 1.082.946 1.364 1.577.118-.596.188-1.344.753-1.683.728-.385 1.304.398 1.363 1.064.13.782-.117 1.588-.834 3.937l-.2.607 1.81 5.362c.129-3.107 2.187-2.161 2.422-.467.211 1.554-.776 4.066-.999 4.767-.047.151-.071.327-.2.432l1.363 7.068c.059-.724.165-1.449.353-2.15.294-1.448 1.705-2.57 2.633-.888.953 2.138-.387 3.47-2.151 6.157-.047.082-.129.129-.223.152-.012.082-.059.152-.118.199.764 5.771 1.317 12.348 1.423 18.295 0 .49-.694.478-.706.046-.129-6.005-.576-12.033-1.375-17.979a.32.32 0 0 1-.294.128c-1.234-.058-2.798-.304-3.586-1.355-.529-.935.435-1.577 1.305-1.437-1.152-.923-2.386-2.044-2.692-3.516-.223-1.694 2.622-2.629 4.597 1.67-.353-2.056-.753-4.124-1.223-6.168-1.364-.923-2.657-1.893-3.632-3.189-.612-.725-1.258-2.466.188-2.629.928 0 1.881 1.215 2.457 1.916-.565-2.033-1.223-4.054-1.964-6.028-.082-.024-.164-.047-.317-.164-1.387-.152-2.904-.28-4.021-1.203-.482-.351-.869-1.227-.199-1.589.446-.222.94-.012 1.375.152a11.03 11.03 0 0 1 1.411.654c-.682-.771-1.658-2.103-1.423-3.108.094-.327.294-.537.553-.619-1.129-2.196-1.999-3.516-2.939-5.047-.741-.63-1.493-1.623-1.858-2.301-.634-1.262.283-2.43 1.482-1.309 1.187 1.192 1.563 2.898 1.951 4.463l.012-.035zm51.409-43.868c-.059.105-.059.199-.035.28l-3.374 3.003c-.706 0-1.341.537-1.811 1.051.082-.595.259-1.331-.153-1.834-.564-.607-1.375-.047-1.634.573-.376.701-.411 1.542-.493 3.995l-.012.643-3.457 4.486c.894-2.979-1.363-2.746-2.139-1.227-.705 1.402-.588 4.101-.611 4.825 0 .163-.036.327.047.479l-3.598 6.238c.188-.701.318-1.425.365-2.149.188-1.472-.764-2.979-2.21-1.682-1.599 1.717-.765 3.411.023 6.507.024.093.082.163.165.21-.012.082 0 .152.047.222-2.61 5.21-5.279 11.25-7.324 16.846-.165.468.505.678.646.269a164 164 0 0 1 7.171-16.566c.036.094.106.187.236.222 1.187.339 2.739.619 3.832-.128.799-.713.106-1.636-.764-1.788 1.387-.502 2.927-1.168 3.691-2.453.764-1.531-1.61-3.341-4.89.093.999-1.834 2.057-3.656 3.162-5.432 1.599-.432 3.127-.935 4.479-1.846.811-.491 1.999-1.928.682-2.547-.882-.292-2.175.538-2.951 1.017 1.199-1.741 2.481-3.435 3.833-5.071.082 0 .176.012.352-.058 1.364.304 2.834.666 4.197.152.576-.175 1.223-.876.706-1.437-.353-.351-.894-.316-1.352-.292-.518.023-1.035.07-1.552.163.893-.514 2.245-1.448 2.363-2.488.023-.339-.106-.596-.318-.771 1.787-1.717 3.045-2.675 4.421-3.832.917-.362 1.939-1.063 2.504-1.577 1.011-.993.529-2.395-.964-1.718-1.505.736-2.422 2.232-3.304 3.587l.024.035zm12.261 65.072c-.094.035-.164.023-.235 0l-2.88 2.278c-.094.561-.623.993-1.093 1.297.493.023 1.105-.023 1.457.374.412.537-.152 1.098-.681 1.226-.623.211-1.305.117-3.292-.151l-.517-.07-4.091 2.149c2.527-.304 2.033 1.46.705 1.869-1.223.374-3.386-.081-3.974-.163-.129-.024-.27-.012-.376-.094l-5.525 2.021c.588-.046 1.187-.058 1.787 0 1.211.047 2.292 1.017 1.058 1.986-1.599 1.04-2.857.152-5.255-.899-.071-.035-.118-.094-.153-.164-.07 0-.129-.023-.176-.07-4.562 1.367-9.793 2.687-14.589 3.552-.4.07-.482-.491-.13-.561 4.832-.9 9.628-2.044 14.331-3.47-.071-.035-.129-.105-.141-.222-.118-.993-.13-2.266.623-3.037.682-.538 1.328.14 1.34.853.588-1.04 1.34-2.173 2.481-2.606 1.34-.397 2.468 1.741-.741 3.879a92.55 92.55 0 0 0 4.82-1.787c.564-1.215 1.175-2.372 2.092-3.318.506-.584 1.823-1.332 2.152-.199.117.736-.729 1.659-1.223 2.208 1.575-.724 3.115-1.507 4.608-2.371 0-.059.012-.141.095-.281-.059-1.121-.153-2.348.446-3.364.224-.433.882-.853 1.258-.374.235.327.141.747.059 1.121-.094.409-.2.818-.341 1.215.541-.642 1.481-1.6 2.328-1.542.282.024.47.164.576.362 1.622-1.191 2.574-2.056 3.691-3.002.412-.678 1.117-1.402 1.611-1.788.94-.677 1.998-.093 1.258 1.005-.8 1.098-2.128 1.636-3.339 2.15l-.024-.012z"/></g></svg>